<svg xmlns="http://www.w3.org/2000/svg" width="201.386" height="173.84" viewBox="0 0 201.386 173.84">
  <g id="Group_1" data-name="Group 1" transform="translate(-656.684 -316.83) rotate(14)" opacity="0.74">
    <path id="Path_24" data-name="Path 24" d="M828.938,691.246c.018.737.035,1.475.052,2.191-.293-.162-.673-.536-.881-.457-.568.216-.076.709-.116,1.082a10.345,10.345,0,0,1-.265,1.926c-.162.527-.62.661-.965.322a1.63,1.63,0,0,0-1.875-.435l-.954-1.747c-.039.4-.058.591-.077.786l-.285-.048c-.095-.656-.19-1.311-.282-1.949l1.533-.483a4.2,4.2,0,0,1-.95-.7c-.15-.2-.1-.556-.324-.856l-.34.61-.773-.759-.423,1.164a1.537,1.537,0,0,1-1.532-1.052c-.212-.455-.474-1.116-1.169-1.287-.168-.041-.327-.345-.389-.557-.242-.822-.463-1.652-.65-2.488-.082-.367-.076-.749-.725-.729.238.393.411.759.024,1.109-.083.075-.007.313-.028.472-.046.36-.107.718-.184,1.222l.516.947-1.337-.31a2.129,2.129,0,0,1,.11-.851,2.548,2.548,0,0,0,.233-2.13c-.195-.405-.041-.977-.676-1.2l-.493.6c-.1-.028-.185-.025-.22-.064a10.8,10.8,0,0,1-1.835-3.671.716.716,0,0,1,.016-.508c.093-.188.275-.46.423-.463.2,0,.414.209.651.347l.46-.566c-.2-1.246-1.3-.618-1.955-.975a.755.755,0,0,0-.085.212,9.994,9.994,0,0,1-.067,1.65,6.282,6.282,0,0,0-.341,1.488,8.263,8.263,0,0,0,.015,1.115,1.973,1.973,0,0,1-.6,1.6c-.068-.564-.266-1.021-.132-1.34a4.2,4.2,0,0,0,0-2.246c-.035-.312-.341-.593-.562-.949l-.615.7c-.1-.037-.183-.04-.216-.08A10.733,10.733,0,0,1,809,678.8c-.225-.593-.47-1.178-.74-1.852l2,.157c-.211-.933-.393-1.106-1.111-1.156-.4-.028-.8-.064-1.235-.1-.045-.542.728-1.18-.332-1.458a4.3,4.3,0,0,0,.111,2.281.577.577,0,0,1-.07.543c-.719.479-.832,1.311-1.275,2.079l-.89-1.068c.734-.216.859-.43.63-1.034-.3-.8-.593-1.609-.928-2.4a5.508,5.508,0,0,0-.658-.889l1.95.232.191-.885-2.252-.425c-.052-.546.732-1.224-.364-1.521a5.5,5.5,0,0,0,.13,2.3c.053.144.1.361.035.464-.351.524-.742,1.022-1.159,1.583-1.118-1.012-.386-2.474-.921-3.7l.546.2a17.592,17.592,0,0,0,.386-1.75c.074-.6.042-1.211.058-1.884l.995.121c.1-.873-.477-1.157-1.075-1.5,1.03-.055,1.836.667,3.06,2.636l1.32-.642c.334.279.647.653,1.148.261.3-.235.762.127,1.092-.36.226-.334.785-.441,1.184-.644.83.458,1.057,1.543,2.246,1.883l-.756-1.119.513-.634c1.119,1.042,1.025,2.419.977,3.8l1.3-.585.16.122.6-1.857c-1.074-.779-1.189-2.143-.267-3.656l1.3.326-.143.6c.366.8,1.393.846,1.782,1.717l.338-.731,1.008,1.317c.287-.936-.463-1.193-.611-1.7-.153-.529-.385-1.02-1.139-1.015a1.974,1.974,0,0,1,2.614-.36c.532-.711.827-.84,1.314-.577.576.311.73.688.511,1.405l1,.916a1.349,1.349,0,0,0-.279-1.391.585.585,0,0,1,0-.9c.4-.454.737-.958,1.084-1.416l.837.391.467-1.48.626.508c.128-.315.25-.582.346-.858s.691-.047.573-.555c-.011-.046.077-.166.1-.162.793.13,1.528-.635,2.295-.237a1.579,1.579,0,0,0,1.769.02c.329-.534-.135-1.456.828-1.735l.424.315c.087-.058.171-.082.193-.133a2.137,2.137,0,0,1,2.2-1.433c.138,0,.316.054.407-.012.85-.621,1.894-.505,2.838-.764q1.3-.355,2.617-.615a2.088,2.088,0,0,1,.922.066,1.42,1.42,0,0,0,1.866-.66,1.488,1.488,0,0,1,1.158-.743c.814-.048,1.621-.2,2.431-.3.1-.013.244.037.305-.016.679-.579,1.51-.317,2.272-.436.9-.139,1.782-.332,2.713-.509l.935,1.533c.34-.573-.275-1.031-.074-1.663.751-.069,1.559-.163,2.369-.21a11.169,11.169,0,0,0,1.509,0c.621-.124,1.166.264,1.829.081.419-.116,1.175.125.99,1.1l1.784-.765,1.872.763c.272-.294.289-.861.835-.456a3.2,3.2,0,0,0,.911.345c.346.114.7.214,1.254.383a16.465,16.465,0,0,1,1.683-.506,1.093,1.093,0,0,1,.729.287,3.094,3.094,0,0,0,2.27,1.031c.248-.026.53.274.865.464-.248-.715.2-.966.75-1.239l.438.669c.051-.006.126.007.166-.024a2.187,2.187,0,0,1,2.342-.083.961.961,0,0,0,.837.2,6.415,6.415,0,0,1,1.413-.022,1.5,1.5,0,0,1,.7.36,4.813,4.813,0,0,0,1.093.779,3.08,3.08,0,0,0-.067-1.018c-.134-.317-.145-.579.146-.663.341-.1.545.147.625.51a15.221,15.221,0,0,0,.417,1.487c.046.14.2.245.367.446.154-.772.806-1.311.438-2.105-.035-.076.143-.3.27-.381a.368.368,0,0,1,.339.12,2.192,2.192,0,0,1,.03.618,2.454,2.454,0,0,1,.573.1,2.25,2.25,0,0,1,.474.34c-.309.733-.309.733-.064,1.414l.436-.841.6.426.333-1.742c.286.774,1.134.312,1.291,1l-.583.572.125.173.722-.228a1,1,0,0,1,.146.3,4.1,4.1,0,0,1,.013.9c-.079.52.193.755.769.9a.833.833,0,0,0-.367,1.18,6.894,6.894,0,0,1,.453,1.767c-.835-.154-.445-.878-.677-1.4l-.567.049.283.723c-.856-.148-.856-.148-1.455-.884l-2.1,1.35,1.265.091c-.069.274-.139.554-.23.914a2.57,2.57,0,0,1,1.358.582,1.729,1.729,0,0,1,.746,1.476c.016.31,0,.621.025.931.041.619.141.7.985.812-.039-.271-.076-.52-.119-.815.826-.02.6-.844.917-1.144-.158-.679-.293-1.263-.481-2.071.311.279.541.388.545.5.038,1.066.823,1.831,1.092,2.795a11.1,11.1,0,0,1,.175,1.214c.039.243.109.481.165.722l.212-.02a1.329,1.329,0,0,0,.049-.425,3.325,3.325,0,0,1-.018-1.617,2.7,2.7,0,0,0-.235-1.279c-.163-.553-.429-1.067.068-1.624.13-.146-.016-.539-.04-.88l-.5.247a10.862,10.862,0,0,1-.656-1.474,6.132,6.132,0,0,1-.349-2.017,17.2,17.2,0,0,0-.1-2.657l.774.152c.631-.775,1.041-.836,1.895-.21a5.467,5.467,0,0,1-.533.24,5.776,5.776,0,0,1-.647.117l.868.647.475-.4c.081.108.14.279.243.313.981.319,1.125,1.152,1.3,2,.052.256.179.623.368.7.409.164.353.531.529.786.149.215.563.25.393.666-.015.038.048.134.1.167,1.359.878,1.259,2.348,1.5,3.68.032.18.07.358.124.636a.905.905,0,0,0,.223-1.021c-.332-1.575-.546-3.184-1.005-4.72-.316-1.058.259-2.016-.037-3.028,1.189.124,1.413-.043,1.639-1.158l1.154-.245c.292.247.593.481.87.74a2.5,2.5,0,0,1,.547.618c.355.686.651,1.4,1,2.091a.714.714,0,0,0,.621.311c-.223-.913-.414-1.836-.682-2.736-.125-.42-.256-.756.123-1.124a1.058,1.058,0,0,0,.16-.657,1.932,1.932,0,0,1,.7-1.8l-.816-.294-.253.98c-.5-.178-.467-.6-.606-1.017l1.154-.364c0-.231.088-.5-.008-.671-.425-.743.019-1.15.521-1.566.469-.39.9-.836,1.4-1.18a17.222,17.222,0,0,1,1.6-.884l.928.944.208-.056c0-.72.007-1.441.011-2.207l.974-.1.317-.663c.729-.251,1.3-.442,1.859-.643.712-.253.493-1.16,1.151-1.576l.683,1.3c.611-.5-.029-1.1.2-1.715l1.191.039c.062-.382.133-.813.215-1.315a5.646,5.646,0,0,0,2.387-2.33c.468.147.863.185,1.076-.48a2.235,2.235,0,0,1,1.314-1.507,1.233,1.233,0,0,0,.428-.411c.289-.359.4-1.021,1.115-.633.023.013.141-.086.167-.152a.727.727,0,0,1,.685-.492,1.785,1.785,0,0,0,.871-.641c.456-.5.819-1.1,1.562-1.253a.411.411,0,0,0,.269-.259c.126-.757.578-.749,1.147-.529a1.381,1.381,0,0,0,.353.026,1.635,1.635,0,0,1,1.755-.929c.279.046.637-.391.933-.653.791-.205,1.059.37,1.253,1.044l.192-.089c-.012-.323-.025-.645-.045-1.183.545.6,1.056.95,1.052,1.691a2.505,2.505,0,0,0,.273.856,9.51,9.51,0,0,1,.811,2.1A6.952,6.952,0,0,0,930,639.792c.019.038.124.032.281.068-.171-.8-.01-1.651-.827-2.184a.489.489,0,0,1-.209-.344,6.388,6.388,0,0,0-.856-2.528,1.478,1.478,0,0,1,.469-2.036,5.288,5.288,0,0,0,.872-1c.044-.052.079-.173.1-.169.809.123,1.187-.739,1.9-.827a1.928,1.928,0,0,0,.586-.177,4.289,4.289,0,0,1,2.945-.4,1.8,1.8,0,0,0,1.968-.628,2.716,2.716,0,0,1,2.051-.838c.439-.013.874-.132,1.314-.172a1.588,1.588,0,0,1,.7.051c.541.212,1.062.477,1.673.759l.229.726.144-.02a2.673,2.673,0,0,0,0-.663,1.5,1.5,0,0,1,.631-1.625,10.357,10.357,0,0,1,2.988-2.019c1.353-.5,2.728-.951,4.108-1.375a2.285,2.285,0,0,1,1.132-.03,7.3,7.3,0,0,0,2.773.064,1.338,1.338,0,0,0,.7-.259,4.935,4.935,0,0,1,1.86-1.25,4.141,4.141,0,0,0,1.026-.688,1.542,1.542,0,0,1,1.6-.311l-.362-.552a3.633,3.633,0,0,1,.5-.625.732.732,0,0,1,.555-.141,3.144,3.144,0,0,1,1.93,2.36,2.837,2.837,0,0,1-.221.719l1.412,1.159,1.549-.3a16.135,16.135,0,0,0-1-1.762,2.163,2.163,0,0,1-.3-2.042l.694.253c.042.436.081.84.121,1.244l.276,0,.283-2.687c.62,0,1.185-.548,1.712-.065l1.366-.6.225-.643,1.412-.07c-.039-1.254-.327-2.611.7-3.968-.284,1.382-.222,1.517.811,2.031-.008-.265-.016-.526-.024-.773a1.2,1.2,0,0,1,.179-.034c.508,1.24,1.649,1.948,2.491,2.967l.335-.351c.484,1.17,1.621,2.034,1.6,3.5-.716-.256-1.348-.464-1.963-.715a.611.611,0,0,1-.27-.4c-.184-.82-.818-1.341-1.165-2.05l-.209.052-.134.849.783.347c-.021.15,0,.281-.054.336a7.454,7.454,0,0,1-.745.685c-.673.524-.681.785.008,1.421l1.278-1.141c.285,1.2.566,2.364.835,3.529.153.663.437.824,1.141.6-.011.441-.021.874-.034,1.392-.43-.246-.808-.46-1.184-.679a.567.567,0,0,1-.155-.137c-.36-.448-1.25.021-1.371-.7a3.675,3.675,0,0,0-.694-1.3,8.782,8.782,0,0,0-.649-.827l-.217,1.063.878.07c-.091.321-.089.447-.151.505a7.249,7.249,0,0,1-.7.589c-.616.454-.665.625-.325,1.61L973,625.3c.044,1.742.931,3.275.92,4.988,0,.272,0,.543,0,.877l-.964-.279c-.107.445-.364.839.159,1.2.127.088.095.381.178.56a2.833,2.833,0,0,0,.365.584,16.5,16.5,0,0,1,1.274,1.688,1.664,1.664,0,0,1-1.421-.983A3.337,3.337,0,0,0,972,632.271c-.277-.147-.44-.515-.648-.787-.246-.324-.485-.654-.737-.994-.336.288-.631.537-.923.791a.816.816,0,0,0-.233,1.01c.062.136.3.2.469.276.242.1.256-.024.361-.245.245-.515.577-.514.953-.091a.934.934,0,0,1,.235.337,11.559,11.559,0,0,1,.687,4.308l-.93-.254c-.48.944.248,1.588.61,2.189a6.719,6.719,0,0,0,1.711,1.416l-.983,1.126c-.061-.5-.106-.866-.151-1.231-.594-.455-1.726-1.481-1.849-2.066-.537.218-.279.621-.168.917.273.731.649,1.424.9,2.161a1.35,1.35,0,0,1-.049,1.324c-.274.453,0,1.236.028,1.943l-.55,1.043c-.22-.849-.912-1.178-1.4-1.7-.723-.764-1.65-1.473-1.787-2.662l.51-.006c.255-.944.255-.944-1.273-1.844l.792,1.864-.519.374c-.61-.037-.917-.476-1.02-1.158l-1.007.126.511,1.134,1.267.384c-.008.066-.016.132-.023.2l-1.074.2,1.346.983.811-.619,1.074,1.849-.141.151-.634-.222.223,1.186,1.963-.385c-.2.911-.1,1.694-.7,2.411a5.14,5.14,0,0,0-.562,1.682c-.767-.138-.439,1.169-1.258,1.288.185.678-.5,1.108-.7,1.826a5.142,5.142,0,0,1-1.554-2.427c-.148-.383-.2-.8-.716-.912-.128-.028-.243-.235-.314-.384-.895-1.862-1.747-3.744-2.68-5.586a2.52,2.52,0,0,1,.3-2.784c.078-.114.147-.233.218-.346l-.636-1.476-.88,1.19a19.456,19.456,0,0,1-.908-3c-.136-1.02-1-1.605-1.269-2.578l.94-.3c-.035-.94-.035-.94-1.143-1.544l.124.67-.826.96.126.176.468-.065a5.343,5.343,0,0,0,.245,2.842,25.448,25.448,0,0,0,2.679,5.89,13.024,13.024,0,0,1,.774,2.246,3.687,3.687,0,0,0,.566,1.4,1.126,1.126,0,0,1,.238,1.474l.756.516c-.636.835.629,1.043.49,1.726,1.006-.007,1.355.566,1.116,1.585l1.015,1.747-.828.867-.425-1.347c-.4.1-.576.244-.5.6.106.526.271,1.049-.149,1.548-.089.105.069.393.056.592-.018.275-.091.547-.183,1.052-.56-.737-1.142-1.087-1.265-1.85a2.313,2.313,0,0,0-.641-1.04,8.31,8.31,0,0,1-1.626-2.919,2.439,2.439,0,0,0-.24-.458c-.474-.778-.4-1.159.362-1.765.045-.036.05-.123.111-.288a3.761,3.761,0,0,1-1.278-.308,3.722,3.722,0,0,1-.755-1.072c-.293.142-.6.217-.48.661.094.342.127.7.2,1.157a7.166,7.166,0,0,1,1.839,2.861,13.794,13.794,0,0,0,1.536,3.05c.09.163.362.226.621.376a1.971,1.971,0,0,0,.623,1.437c.614.548.434,1.947-.191,2.694a9.078,9.078,0,0,1-.908.818c-.27-.422-.481-.76-.7-1.092-.609-.927-1.263-1.826-1.818-2.784-.458-.79-.744-1.68-1.207-2.466a5.06,5.06,0,0,0-1.552-2.107c-.267-.16-.388-.553-.6-.822s-.435-.328-.689.083a9.85,9.85,0,0,0,.664.871,11.272,11.272,0,0,1,1.966,3.015c.464.988.947,1.97,1.482,2.921.3.531.745.977,1.081,1.49.687,1.047.574,1.661-.4,2.475a.885.885,0,0,0-.12.152l.241,1.341c-.629.045-1.164.109-1.181.825l-.837-.2-.134.937c-.23.023-.469.027-.7.073a.888.888,0,0,1-1.06-.579c-.655-1.213-1.377-2.391-2.082-3.577a5.9,5.9,0,0,0-.474-.6c-.078.163-.169.271-.145.317a11.936,11.936,0,0,0,1.245,2.442,2.778,2.778,0,0,1,.405.716,7.737,7.737,0,0,0,.851,1.831c.274.349.206.967.322,1.64l-.988-.4c.093.459.183.9.272,1.337l-.2.083a2.253,2.253,0,0,1-.375-.641c-.17-.888-.542-1.447-1.587-1.033-.127-.541-.763-.742-.513-1.338.009-.021-.036-.092-.055-.092-.634,0-.814-.558-.96-.96-.318-.872-1.073-1.475-1.3-2.426-.116-.491-.736-.827-1.029-1.362-.635-1.162-1.418-2.244-2.148-3.354-.048-.073-.159-.1-.359-.229A10.087,10.087,0,0,0,948.9,659.4c.246.326.5.651.711,1a48.9,48.9,0,0,0,3.245,5.391,2.55,2.55,0,0,1,.7,2,2.655,2.655,0,0,0,.142.793,2.008,2.008,0,0,1,.108.7c-.1.477-.27.939-.468,1.589a3.785,3.785,0,0,1-.368-.764c-.236-1.19-.229-1.2-1.421-1.319-.446.67-.109,1.3.075,1.961a6.841,6.841,0,0,1,.241,1.594.538.538,0,0,1-.677.592,4.669,4.669,0,0,1-.37-1.241c-.012-.907-.632-1.342-1.214-1.84a2.624,2.624,0,0,1-.548-.6,18.467,18.467,0,0,1-2.017-3.559c-.028-.084-.12-.146-.337-.4a3.757,3.757,0,0,0,.2.92c.479.841.618,1.821,1.426,2.552a5.317,5.317,0,0,1,.949,2.151c.32.9.581,1.816.861,2.7l-1.553,1.324c-.7-2.656-.884-3.046-1.637-3.249l1.064,2.775-.9.014c-.006.663-.013,1.3-.021,2.1-1.169-.931-1.154-2.312-1.964-3.26a1.529,1.529,0,0,0,0,.552c.341.847.733,1.674,1.066,2.523a1.224,1.224,0,0,1-.071,1.407l-1.025-.452-.534,2.562-.5-.208c-.073.1-.157.2-.231.307-.162.237-.269.6-.489.689a.8.8,0,0,1-.969-.408c-.162-.24-.332-.466-.644-.184l.039.025-.718-1.324a2.419,2.419,0,0,0-.038,1.782l.019-.028-.635.447-.3-.485c-.252.355-.252.355.453,1.975a.879.879,0,0,1-1.173.483c-.6-.154-1.221-.23-2.025-.375l.612,1.133-2.243.382c-.255.725-.458,1.371-.714,2-.085.21-.281.277-.569.344-.475.11-.862.6-1.286.937l.033.024-.548-.895-.242.087.167,1,.011-.039a2.559,2.559,0,0,1-.665-.1,6.7,6.7,0,0,1-.836-.512c-.145.217-.374.413-.339.53.214.71-.5.981-.678,1.5-.119.345-.461.219-.926-.442l-.931,1.165-.767-1.183-.529.107-.4-.542c-.422.446-.422.446.635,1.959-.5.193-.931.572-1.654.164l-.236.913-.887-.087c-.068-.46-.13-.876-.192-1.293a2.417,2.417,0,0,1-1.145,1.474,1.712,1.712,0,0,0-.456.533c-.275.372-.539.753-.807,1.13l-.242-.1.494-1.9c-.757.166-.929.529-.748,1.13-.85.136-.99.922-1.414,1.445-.138.17-.218.459-.387.519-.67.237-1.377.37-2.045.613a7.356,7.356,0,0,0-1.146.676c-.431-.363-.755.426-1.26.365l-.551-.532-.7.987c-.372-.326-.752-.649-1.344-.326,0,.221-.007.481-.012.825-.611-.278-.87.295-1.3.5a7.629,7.629,0,0,1-1.668.878c-.249.055-.4.562-.7,1.025a5.248,5.248,0,0,0-1.454.1c-1.031.343-1.65-.258-2.315-.862-.346.3-.1,1.083-.842.986-.014,0-.054.049-.052.072.1.994-.714.912-1.3,1.1a3.978,3.978,0,0,0-.457.205,1.46,1.46,0,0,1-1.872-.177,1.342,1.342,0,0,1-1.57.443,1.692,1.692,0,0,0-.688.055c-.3.042-.6.1-.974.156a23.053,23.053,0,0,1-1.329-3.837c-.236-.935-.385-1.892-.621-2.826a1.744,1.744,0,0,0-.669-.924.921.921,0,0,0-.046.33c.122.5.292.981.394,1.481.279,1.364.581,2.727.775,4.1a10.734,10.734,0,0,1-.019,2.251.9.9,0,0,1-.786.853,3.048,3.048,0,0,1-2.643-.309c-.537.024-1.042.032-1.543.074a1.875,1.875,0,0,0-.694.164c-.925.479-.958.478-1.418-.507-.324.248-.988.224-.391,1.029-.613.038-1.156.222-1.536.048-.319-.145-.446-.709-.659-1.087l-.254.052c-.013.386-.027.771-.043,1.237-.882-.409-.869.665-1.421.845-.65-.006-1.308-.89-2,.17l-.514-.452-1.528,1.314c-.024-.41-.036-.6-.048-.8-.631-.192-.7.428-1.034.732a6.426,6.426,0,0,0-.775-.45.952.952,0,0,0-.576-.05c-.89.24-.887.251-1.363-.472-.784.3-.959,1.349-1.9,1.548l-.678-.944a3.651,3.651,0,0,0-.788.446c-.76.713-.828.711-1.152-.239-.117-.343-.181-.388-.921-.635-.045.3-.089.589-.144.948l-1-.192c-.122.236-.2.58-.328.6a3.006,3.006,0,0,1-.895-.142c.031-.058.094-.121.087-.174-.049-.376-.054-.376-.644-.618l-.113.945a6.245,6.245,0,0,1-1.45,0c-.121-.025-.122-.625-.193-1.05-.5-.216-.514-.3,0-1.091-1.015-.638-1.05-1.825-1.47-2.832-.609.237-.437.672-.367.992.108.49.328.955.475,1.438a1.809,1.809,0,0,1,.127.766c-.088.546.5,1.018.158,1.587-.009.014.239.181.5.372-2.251-.029-3.672-.964-4.277-3.135-.44.661.058,1.078.148,1.543.086.444.244.874.394,1.393-.632-.061-1.094-.089-1.551-.152-.695-.1-.8-.262-.864-1.008a4.79,4.79,0,0,0-.276-.907c-.422.694-.422.694-.251,1.37-.938-.281-1.167-1.359-1.908-1.836l-.235.156.665,1.794c-.293.138-.468.049-.556-.29-.139-.538-.415-.639-.9-.334a3.974,3.974,0,0,1-.926.307,17.694,17.694,0,0,1-1.02-1.7c-.248-.542-.376-1.139-.635-1.694-.347.849.3,1.618.217,2.508-1.246-1.066-1.474-2.67-2.494-3.795.371,1.211.969,2.379.4,3.82-.842-.662-.878-1.687-1.546-2.4l.221,1.736a3.43,3.43,0,0,1-1.561-2.284l-1.528.2c-.186-1.381-.385-2.876-.591-4.37-.19-1.376-.436-2.745-.571-4.126a20.811,20.811,0,0,1-.2-4.294,18.868,18.868,0,0,1,.433-3.2,4.609,4.609,0,0,0-.367-2.982,2.606,2.606,0,0,0-.249.629c-.034.688-.03,1.377-.051,2.066a10.18,10.18,0,0,1-.37,2.433,5.015,5.015,0,0,0-.016,1.728c.158,1.787.323,3.574.537,5.354a42.489,42.489,0,0,0,.651,4.8,5.606,5.606,0,0,1-.154,3.514l-.774-.172c.107-.524.676-.959.109-1.454l-.855,1.493c-.13-.353-.313-.607-.249-.722a9.358,9.358,0,0,1,.88-1.257c.238-.3.272-.709-.041-.769-.662-.126-.628-.641-.8-1.059-.078-.191-.149-.385-.222-.575l.909-.694-1.128-.726c-.55.221-.571.356-.445,1.057a12.03,12.03,0,0,1,.141,2.2c.164.465.777.787.513,1.494a2.171,2.171,0,0,1-1.1-1.349,1.961,1.961,0,0,0-.209.59c.021.594-.033,1.071-.83.851-.418.412-.933.355-1.072-.13a6.406,6.406,0,0,1-.3-2.847,10.959,10.959,0,0,1,.439-1.237c.027-.089-.107-.227-.224-.454l-.456.592c-.893-.086-.576-1.026-1.008-1.531l-.665,1.207a2.779,2.779,0,0,0,.706.576c.6.228.754.376.675.907-.064.434-.091.876-.185,1.3-.077.352-.1.758-.6.861-.2.041-.364.25-.545.383-1.063-.462-1.1-.524-1.063-1.631.033-.89-.128-1.106-1.2-1.271.633.327,1,.6.713,1.2l-1.222.13c-.546-.651-.546-.651-.581-3.327l.534-.117-.338-1.072c-.322.591-1.227.581-1.083,1.55.044.295-.389.66-.6.987-.77-.225-.426-1.021-.877-1.388-.624.274,0,.612-.013.906-.022.354.077.716.021,1.115a4.992,4.992,0,0,1-1.373-1.938c-.079-.313-.083-.573-.486-.769-.34-.165-.507-.688-.788-1.108l-.542.767a4.669,4.669,0,0,1-.725-2.024c-.212-.855.37-1.336.774-1.894-.451-.608-.451-.608-1.247.012a3.347,3.347,0,0,0-.051-.41c-.275-1.115-.638-2.225.067-3.329.065-.1-.05-.32-.08-.484a10.293,10.293,0,0,1-.1-3.64,14.957,14.957,0,0,0,.178-4.671,7.974,7.974,0,0,0-.365-1.19l-.22.042a7.776,7.776,0,0,0-.077.871,21.621,21.621,0,0,1-.28,4.768,6.855,6.855,0,0,0,.028,1.421c.018,1.211.633,2.429-.041,3.635a.563.563,0,0,0-.006.307,7.761,7.761,0,0,1-.028,3.652l.251.063Zm141.119-50.994a1.84,1.84,0,0,0,.746,1.624c.068-.706-.441-1.132-.772-1.639.512-.125.512-.125.411-.636Zm-52.339,19.6c-.2-.394-.371-.814-.863-.948.283.314.186.984.879.918.091.5.016,1.077.657,1.453.014-.375.024-.664.035-.952ZM894.27,677.716c.087-.051.243-.1.249-.155a4.259,4.259,0,0,0-.233-2.652c-.371,1.032.013,1.922-.015,2.809.043.44.086.88.147,1.512A1.166,1.166,0,0,0,894.27,677.716Zm67.672-48.5c1.09.606.019,1.282.016,1.945l1.038.14c.023-.6.075-1.125.049-1.649a1.276,1.276,0,0,0-.3-.632c-.321-.421-.486-.373-.8.2l0,.612.191-.027Zm-6.874,2.6c-.75-.653-1.932-.494-2.266-1.58a3.629,3.629,0,0,1-.595.753c-.75.535-.823.939-.231,1.607.192.216.364.451.553.688-.916.566-1.2.412-1.476-.661l-1.362-.4a4.544,4.544,0,0,0,.18.555c.1.2.223.385.363.621a1.544,1.544,0,0,1,.357-.105,1.36,1.36,0,0,1,.358.076,2.868,2.868,0,0,0,.052,2.512l.262-.019c-.047-.459-.094-.917-.149-1.448l1.79,1.737.2-.131c-.11-.491-.216-.983-.333-1.472-.028-.119-.142-.238-.127-.344a5.808,5.808,0,0,1,.247-1.195,7.538,7.538,0,0,1,.616-1.069c.072.49.1.861.185,1.218s.249.714.354,1.077c.146.5.461.479.883.351A1.94,1.94,0,0,1,955.069,631.819Zm-41.44,26.7a4.335,4.335,0,0,0,2.02,2.4c-.165-.364-.475-.641-.62-.988a5.993,5.993,0,0,1-.228-1.209c-.011-.06-.085-.107-.12-.165-.378-.61-.781-1.207-1.124-1.836a4.224,4.224,0,0,1-.735-1.683,1.777,1.777,0,0,0-1.372-1.776l-.435.557.71.254c.115.456.1.956.337,1.217a5.123,5.123,0,0,1,.928,2.037,1.3,1.3,0,0,0-.516,1.44C912.942,659.2,913.247,658.876,913.629,658.522ZM944.923,633.4l-1.336-.609c.171.4.193.6.3.686.415.307.731.632.554,1.2-.018.059-.009.173.028.2.717.436.656,1.2.829,1.877a2.243,2.243,0,0,0,.34.543c.29-.091.549-.169.805-.255.57-.189.909-.734.57-1.149a2.2,2.2,0,0,1-.547-1.245,4.467,4.467,0,0,0-.662-1.333l-.586-.016.327-.927-.246-.072ZM820.261,677.9l.222.019c.02-.878.092-1.759.044-2.634a5.344,5.344,0,0,0-.386-2.312,10.539,10.539,0,0,1-1.164-2.92c-.105-.439-.415-.681-1.065-.746.373.876.247,1.728.779,2.5a7.336,7.336,0,0,1,.771,2.006.786.786,0,0,1-.515,1.019c.137.53.54.487,1.021.383C820.071,676.156,820.166,677.029,820.261,677.9Zm144.231-41.7c-.023-.8-.043-1.471-.064-2.178l.5.248c.647-1.118.337-2.075-.9-2.826l.094,1.09-.894-1.133-.193.863.623.641C962.926,634.3,962.661,634.976,964.492,636.2Zm-41.148,7.249-.229.1c0,.167-.071.371,0,.494.444.757.927,1.491,1.383,2.241.264.434.519.876.747,1.33A9.561,9.561,0,0,0,927,649.986c.538-.427.284-.839.074-1.2-.6-1.03-1.183-2.073-1.861-3.051C924.652,644.929,923.971,644.21,923.345,643.452Zm45.6-12.945-2.015-2.38a2.317,2.317,0,0,0-1.2-2.671c.158.867-.078,1.789.524,2.56a6.318,6.318,0,0,1,.595,1.063c.032.063-.032.175-.053.268l-.669-.176c-.331,1.219.77,1.268,1.341,1.759a6.211,6.211,0,0,0-.269-1.023,1.256,1.256,0,0,1,.051-.452l.158,0,.758,1.631Zm-34.046,18.409.2-.062c-.029-.191.01-.447-.1-.563-.577-.614-.474-1.613-1.242-2.126-.162-.108-.186-.429-.269-.654a2.892,2.892,0,0,0-.243-.663,9.5,9.5,0,0,1-1.671-3.925l-1.126-.444c-.046.072-.085.109-.078.128.36.991.377,2.143,1.343,2.852a.994.994,0,0,1,.245.324q1.352,2.42,2.7,4.842A1.949,1.949,0,0,0,934.894,648.917ZM815.928,678.4l.187-.051a3.424,3.424,0,0,1,.3-.818c.4-.572.083-.9-.3-1.3a3.53,3.53,0,0,1-.249.283c-.088.078-.188.141-.424.314a4.282,4.282,0,0,0-.083-1.127,3.025,3.025,0,0,0-.589-.737c.473-.242.572-.528.281-.869-.271-.318-.549-.631-.8-.923a2.029,2.029,0,0,0,.579,2.684c-.1,1.047-.184,2.017-.279,3.059l1.06-.021a2.229,2.229,0,0,1-.112-1.847Zm133.544-25.734a8.069,8.069,0,0,0,.389,1.5c.267.561.375,1.24,1.064,1.558a1.115,1.115,0,0,1,.544.718c.225,1.323,1.453,2.015,1.933,3.168a2.1,2.1,0,0,0,.3-.061c-.218-.441-.423-.854-.625-1.268a3.566,3.566,0,0,1-.423-.925,1.885,1.885,0,0,0-.945-1.482,1.559,1.559,0,0,1-.75-1.056,5.4,5.4,0,0,0-.419-1.111c-.212-.4-.494-.768-.764-1.176Zm-24.335-12.821.587-1.768.685.686.6-.59-1.158-2.2c-.7.373.067.767-.067.994L925,637.7l-.508-.227c-.341.75.592.356.561.81-.016.057-.013.15-.056.18-.167.117-.348.213-.524.317-.467.275-.49.534-.046.8A4.3,4.3,0,0,0,925.137,639.845ZM902.443,659.51c.945-.051,1.211.654,1.57,1.259a6.792,6.792,0,0,0,.615.734c.1-1.475.5-2.726-.1-4.035l-.609.267c.016.442.03.826.047,1.276A1.286,1.286,0,0,0,902.443,659.51Zm46.468-24.376-1.292.407c.029.422.06.863.093,1.337.657-.07.658-.478.513-.97.925.512,1-.631,1.6-.618,0-.326,0-.565.007-.8.008-.875-.271-1.049-1.031-.633a3.483,3.483,0,0,0-.411.311Zm-107.3,31.54c1.15-1.908.83-1.838-.088-2.368l-.206-1.055-1.111.916Zm23.906,32.553c.688-.385.489-.844.222-1.164a1.784,1.784,0,0,1-.412-1.529c.246-.9-.293-1.524-.337-2.475a1.308,1.308,0,0,0-.363,1.564c.039.188.191.4.145.552C864.443,697.308,865,698.193,865.517,699.228Zm15.6-31.345c.615,1.765.238,3.639,1.158,5.242.516-.291.531-.294.408-.815a12.694,12.694,0,0,1-.531-2.2A3.334,3.334,0,0,0,881.118,667.883Zm-7.8,5.233c1.132.952.666,2.427,1.362,3.637a2.243,2.243,0,0,0,.02-1.977,1.2,1.2,0,0,1,.333-1.505l-1.11-1.1Zm-28.272-2.342c.109-.443.278-.724.2-.891-.384-.828-.034-1.727-.273-2.529-.142-.475.321-.49.353-.858l-.884-.845-.2.1a3.979,3.979,0,0,1,.162,2.793A2.385,2.385,0,0,0,845.043,670.774ZM967.726,622.5a2.057,2.057,0,0,0,.435,1.926c.134-.14.34-.259.33-.358a8.106,8.106,0,0,0-1.687-3.952c-.538.813.36,1.227.252,1.845C967.033,622.09,967.467,622.3,967.726,622.5Zm-2.685,15.192-.146-1.091-.341-.086-.037.6-.392-.191-.28.176c.859.355.667,1.068.844,1.658a1.1,1.1,0,0,0,.393.58.824.824,0,0,0,.653.056c.12-.046.227-.345.2-.509a12.233,12.233,0,0,0-.317-1.261ZM810.256,669.424a7.587,7.587,0,0,0,.817,4c.054.107.329.1.569.17a1.648,1.648,0,0,0-.47-1.38c-.123-.142-.291-.439-.235-.513.508-.679-.244-1.215-.186-1.839C810.761,669.76,810.5,669.629,810.256,669.424ZM960.7,631.342c-1.2.359-.193,1.282-.677,1.848.567.139.677-.144.817-.5a11.4,11.4,0,0,1,.677-1.244l-.547-1.262C960.313,630.508,960.313,630.508,960.7,631.342ZM835.6,691.754l-.213-1.333-1.222,1.273c.208,1.5.208,1.5.8,1.919l.119-1.764Zm127.47-38.238c1.133-1.106.556-2.136.146-3.179-.524.137-.447.461-.4.822a1.527,1.527,0,0,1-.053.944C962.374,652.687,962.667,653.043,963.069,653.516Zm-34.013-7.97c-.388-1.088-.943-1.365-2.529-1.341a.849.849,0,0,0,.638,1.021A9,9,0,0,0,929.056,645.547Zm-30.792,32.7.28-.078a2.107,2.107,0,0,0-.119-.664,6.5,6.5,0,0,1-.747-2.339,8.225,8.225,0,0,0-.455-1.58c-.048-.138-.231-.229-.406-.391a5.128,5.128,0,0,0,.541,2.589A25.131,25.131,0,0,1,898.264,678.244Zm19.845-24.12c.218.725-.293,1.437.545,1.836a6.119,6.119,0,0,1-.216.592c.866-.123.939.95,1.863,1.192C919.376,656.555,919.279,655.16,918.109,654.124ZM817.387,673.515l-.2.062a2.267,2.267,0,0,0,.538,1.732,8.372,8.372,0,0,0,1.1.9c.126.088.35.034.529.045-.04-.183-.036-.5-.129-.527a1.539,1.539,0,0,1-.911-1.019A5.955,5.955,0,0,0,817.387,673.515Zm1.771,3.4a2.187,2.187,0,0,0,.133,2.286.811.811,0,0,0,.9.406A3.633,3.633,0,0,0,819.157,676.92Zm113.325-38.1c.369-1.789.369-1.789-.577-2.884-.134.144-.378.293-.367.421a1.977,1.977,0,0,0,.292.641l-.821.95.818-.258ZM963.7,627.549l-.25.056a9.273,9.273,0,0,0,.038,1.693,1.036,1.036,0,0,1-.094.954c-.237.309-.169.569.276.755a2.272,2.272,0,0,0,.27-.486,4.146,4.146,0,0,1,.169-.891C964.593,628.765,964.043,628.19,963.7,627.549Zm5.7,2.224c-.122-1.349-.334-2.64-1.951-3.037ZM813.576,678.517a7.427,7.427,0,0,0-.221-3.494C812.554,676.21,812.965,677.3,813.576,678.517ZM933.32,636.042a2.481,2.481,0,0,0,1.037,2.705c.275-.437.072-.729-.22-1.065-.415-.478-.377-.538.158-.914a2.623,2.623,0,0,0,.316-.344Zm-2.064,8.387c-.1-.2-.206-.4-.3-.607s-.175-.41-.266-.626c-1.051.654-1.145.8-.732,1.449.168.266.532.407.822.617ZM826.749,688.36a1.107,1.107,0,0,1,.324-1.3c.339-.281.221-.742-.238-.994l-.9.646C825.926,687.366,825.748,688.062,826.749,688.36Zm113.664-52.915c-.094,1.93.034,2.592.555,2.888l.491-1.136a3.3,3.3,0,0,1-.493-.9C940.889,635.914,940.848,635.576,940.414,635.445ZM821.462,668.791c-.206.236.147.8-.525.822-.341.01-.426.641-.128.937a6.589,6.589,0,0,0,1.038.686,13.911,13.911,0,0,0-.083-1.416C821.709,669.486,822.183,669,821.462,668.791Zm63.165-7.044c-.028-.575-.155-.946.348-1.143.153-.06.185-.528.186-.81,0-.077-.325-.235-.484-.216-.345.041-.382.276-.322.612a.675.675,0,0,1-.337.537c-.17.081-.431-.028-.691-.059C883.321,661.59,884.069,661.367,884.627,661.747Zm16.717-1.489.65,1.007c1.031-.2,1.349-.593,1.083-1.29Zm-69.7,32.662c-.215-.057-.36-.05-.4-.113-.366-.535-.87-.2-1.3-.187-.1,0-.184.358-.276.55.183.045.391.167.543.118a1.641,1.641,0,0,0,.479-.352l1.8.376L832,692l-.149.011C831.785,692.286,831.722,692.565,831.641,692.92Zm2.845-5.313.61,1.937.775-.5C835.756,687.959,835.581,687.771,834.486,687.607Zm120.2-52.465c-.29.176-.294.623-.076.631.538.02.712.468,1.078.664a.429.429,0,0,0,.683-.426c-.025-.417-.189-.719-.672-.747C955.363,635.244,955.034,635.186,954.683,635.142Zm-58,37.556.188-.063c-.176-.865-.292-1.748-.545-2.59a14.885,14.885,0,0,0-.657-2.546l-.24.071Q896.052,670.134,896.679,672.7Zm60.232-43.816a1.767,1.767,0,0,0,.266-2.052c-.279.181-.68.311-.693.473C956.438,627.843,956.254,628.473,956.91,628.882Zm-17.834,10.21c-.123-.888-.217-1.557-.315-2.267l-.7-.537A4.473,4.473,0,0,0,939.076,639.092Zm-86.991,58.525a3.053,3.053,0,0,0,.78,2.943C852.98,699.415,852.1,698.629,852.084,697.617Zm115.43-63.1c-.273-1.214-.761-1.748-1.732-1.818C966.392,633.249,966.453,634.3,967.514,634.519Zm-4,8.85c.763.249.993.168.964-.233-.031-.426-.134-.846-.2-1.236l-1.264.4c.081.257.169.538.3.961.155-.251.2-.4.293-.455a1.929,1.929,0,0,1,.483-.133,1.621,1.621,0,0,1-.124.439C963.913,643.2,963.769,643.228,963.511,643.369Zm-136,48.094-.9-.26c.019.677.036,1.235.053,1.849l.733-.1C827.433,692.466,827.465,692.047,827.51,691.463Zm-5.965-4.471a2.746,2.746,0,0,0,.329-.819,4.31,4.31,0,0,0-.238-.763c-.052-.249,0-.544-.358-.568l-.5,1.367Zm41.843,17.8c.152-.069.467-.13.482-.235a3.885,3.885,0,0,0-.061-.915l.776-.339-1.05-.43-.439.56Zm9.125-38.24c-.176.275-.356.494-.329.524.554.609.289,1.272.089,1.975l.833-.02A3.653,3.653,0,0,0,872.513,666.552ZM818.4,678.872c-.763.992-.79,1.424-.251,2.282C818.8,680.428,818.282,679.613,818.4,678.872Zm87.54-17.577c.377-.22,0-.885.672-.769a.721.721,0,0,0,.18-.492.6.6,0,0,0-.458-.318,5.569,5.569,0,0,0-1,.169ZM970.06,620.45l.76.205c-.162-.509.265-1.194-.43-1.579A1,1,0,0,0,970.06,620.45Zm-33.725,60.906c-.67.283-.545.889-.609,1.389-.012.1.2.287.334.313a.487.487,0,0,0,.4-.19,5.227,5.227,0,0,0,.346-.759Zm-128.657-9.938c-.38-.7-.38-.7-1.156-.84-.008.1-.053.211-.017.284.2.412.427.815.627,1.191Zm19.1,18.061-.948.686c.251.7.393.815.782.635C827.147,690.552,827.2,690.273,826.779,689.478ZM903.9,666.2l1.1-.041c-.041-.515-.076-.957-.115-1.46C904.128,664.969,904.126,665.544,903.9,666.2Zm12.515-3.331a4.247,4.247,0,0,0,.495,1.079,1.285,1.285,0,0,0,.868.379c.256.006.457-.265.281-.649C917.073,664.229,917.082,663.094,916.419,662.865Zm-73.091,32.191,1.227.2.289-1.647Zm112.148-67.364c.03.62.051,1.07.075,1.582l.6.246C956.156,628.823,956.315,628.153,955.475,627.692Zm-53.728,38.753a1.76,1.76,0,0,0-.6-1.812C900.357,665.632,901.459,665.888,901.747,666.445Zm55.719-37.27.284.9,1.067-.6-.477-.75ZM900.774,656.5a2.033,2.033,0,0,0,.956-1.808c-.028-.089-.262-.112-.46-.188Zm-6.641,36.874.234-.064-.8-2.545A3.343,3.343,0,0,0,894.134,693.375Zm25.918-52.854c.641.165,1.041.306,1.262-.115a.606.606,0,0,0-.307-.915ZM850.126,699.48c-.069-.511-.284-.717-.373-.569-.414.686-.808.069-1.29-.037l-.105.8Zm13.579-1.06-.566.77.11.151,1.456-.459Zm19.7-32.981c.08.591.127,1.19.258,1.769.044.194.305.339.524.566C884.548,666.686,883.556,666.217,883.408,665.44Zm22.049-14.079,1.2.212c.311-.39.515-.737.118-1.154Zm-41.143,40.627c-.773.761-.693,1.034.368,1.579Zm90.6-50.728c-.714.31-.714.31-.41,1.343l.819-.571Zm-110.8,48.886-.935.743c.411.364.787.541,1.146.163C844.61,690.751,844.493,690.428,844.115,690.145Zm-24.67-1.1.245-.045c.136-1.344-.006-1.641-.974-2.009-.026-.01-.086.069-.13.107l-.177.35.849.049Zm66.445-27.25.26-1.279-.206-.136c.012.745-.581.682-.994.85C885.246,661.722,885.246,661.722,885.89,661.795Zm-33.568,20.25a6.529,6.529,0,0,0-.037-.994c-.053-.292.22-.664-.253-.958A1.775,1.775,0,0,0,852.322,682.044ZM959.739,625c-.729.947-.726,1.169.01,1.8C959.745,626.216,959.742,625.692,959.739,625Zm-17.382,30.2c.534-.555-.022-.737-.147-1a8.308,8.308,0,0,0-.579-.927l-.22.139ZM838.267,690.721l1.034-.073c-.292-.44-.036-.927-.529-1.176Zm105.912-29.984c.413-.374-.025-.62-.116-.884-.105-.305-.1-.738-.728-.826C943.686,659.639,943.588,660.319,944.179,660.737Zm4.429,11.741c-.507.766-.507.766.459,1.379C948.9,673.35,949.18,672.8,948.608,672.478ZM952.6,629.72c.2-.457-.279-.544-.438-.8s.082-.788-.486-.842C951.6,628.873,951.6,628.873,952.6,629.72ZM901.87,656.345l1.209,0c-.131-.415-.242-.769-.4-1.28Zm25.641,27.12c-.685.2-.257.653-.341,1a5.461,5.461,0,0,1-.471,1.017C927.607,685.024,927.118,684.1,927.511,683.465Zm-.8-30.761c.314-.675-.112-.888-.411-1.269-.23.363-.837.368-.554,1.036l.51-.311Zm-72.152,9.376c.177-.791.045-1.058-.795-1.431C854.009,661.217,853.912,661.816,854.556,662.08Zm107.27-28.456c0-.485.4-.894-.092-1.492l-.583,1.235Zm8.711-8.859c.377-.587-.134-.886-.152-1.368C969.841,624.043,969.841,624.043,970.538,624.765Zm-72.966,75.194c-.151.363-.2.719.244.722a.674.674,0,0,0,.71-.823Zm-61.174-11.8.517,1.641C837.166,688.724,837.131,688.573,836.4,688.164Zm115.872-37.011-.175.091c.128.407.229.825.395,1.216.1.242.314.408.755.213Zm-46.18,1.036-1.13-.489.439,1.393Zm11.69.164c.31.915.45.991,1.421.828Zm-15.511,47.423-.451-1.963-.291.082A3.29,3.29,0,0,0,902.267,699.776Zm46.94-54.62c-.192.893.331,1.044.72,1.26.054.03.261-.218.417-.354Zm18.186,4.485-.6-1.511C966.236,648.893,966.334,649.127,967.393,649.64Zm-92.357,54.521c-.318-.1-.5-.223-.644-.186a.4.4,0,0,0-.24.633c.08.134.414.282.459.24A3.16,3.16,0,0,0,875.035,704.161ZM818.9,683.4l.429,1.616.26-.067C819.362,684.433,819.791,683.75,818.9,683.4Zm118.451-49.435c-.006-.58-.354-.852-.864-1.071l-.26.579ZM831.99,678.364c.532.388.532.388.515.838l.7-.1C832.719,678.377,832.719,678.377,831.99,678.364Zm74.465-22.29c-.11-.529.087-1.157-.543-1.5C906.205,655.047,905.587,655.784,906.454,656.074ZM863.789,690.2c-.355,1.039-.318,1.205.357,1.732A3.768,3.768,0,0,0,863.789,690.2ZM968.5,638.439l.234-.1-.706-1.737C967.613,637.568,968.319,637.912,968.5,638.439Zm-83.093,28.243c.313-.855.243-.963-.542-1.044Zm-49.89-3.934,1.087.482C836.444,662.306,836.408,662.286,835.522,662.748Zm72.686,26.734c-.017-1.364-.017-1.364-.517-1.642Zm-63.775,3.768c.308-.514.267-.824-.2-1.1l-.512.683Zm126.96-74.179c-.61.583-.538.838.281,1.108C971.9,619.716,971.472,619.46,971.393,619.071ZM831.2,694.5l1.218-.289-1.108-.723C831.271,693.868,831.245,694.105,831.2,694.5Zm.888-5.923-.194.036a6.532,6.532,0,0,0,.036.971c.015.088.259.137.4.2.049-.14.167-.3.132-.415A5.868,5.868,0,0,0,832.089,688.581Zm122.632-49.569.548-.038c-.014-.443-.026-.812-.04-1.252C954.445,637.969,955.192,638.69,954.721,639.012Zm-94.516,18.144q.109.663.217,1.326l.234-.034C860.493,658.007,861.2,657.47,860.205,657.156Zm-31.023,30.659c.433.217.749.565,1.129.089C829.916,687.3,829.916,687.3,829.183,687.814Zm-22.926-15.708c.3-.966.281-1.006-.487-1A1.34,1.34,0,0,0,806.257,672.106Zm157.151-33.279c.437-.005.53-.289.468-.536-.049-.195-.286-.342-.44-.51l-.214.121Zm-23.948,10.979a1.235,1.235,0,0,0-.717-1.518C938.591,649.008,939.142,649.257,939.461,649.805Zm2.454,12.161c-.478.735-.478.735.408.973ZM953.6,649.3c.128.235.155.345.226.4.189.15.4.277.6.413.052-.079.167-.2.146-.231a3.21,3.21,0,0,0-.484-.588C954.019,649.238,953.85,649.294,953.6,649.3ZM809.8,675.11c.263-.909.263-.909-.537-.968C809.454,674.463,809.2,674.925,809.8,675.11Zm39.227,22.356c-.267,1.068-.255,1.09.465.914a1,1,0,0,0-.064-.285C849.318,697.892,849.183,697.7,849.03,697.466Zm120.742-62.2-.289.01c-.039.195-.151.413-.1.578.079.248.247.51.716.289Zm-23.9,12.65c-.116-.4-.062-.9-.681-.984C945.322,647.318,945.338,647.777,945.873,647.913Zm-3.126-12.225c-.352.516-.667.817-.252,1.317C942.979,636.722,942.956,636.357,942.747,635.688ZM811.895,679.4c.048.575.048.575.368.905C812.649,679.532,812.627,679.478,811.895,679.4ZM849.3,694.236l-.185.029a6.979,6.979,0,0,0,.068.967c.014.071.27.119.416.122a.439.439,0,0,0,.1-.331A7.726,7.726,0,0,0,849.3,694.236Zm122.114-64.85c-.551.58-.547.6.24,1.076C972.02,629.982,971.506,629.768,971.418,629.386ZM948.67,643.735l-.277.118.5,1.1.144-.068ZM960.688,625.6c.565-.74.564-.885.028-1.529C960.706,624.58,960.7,625.041,960.688,625.6Zm-123.64,69.591c.416-.9.21-1.239-.584-1.229a2.233,2.233,0,0,1,.485.515A2.321,2.321,0,0,1,837.048,695.194Zm54.228,5.823.177-.089a2.349,2.349,0,0,0-.135-.664c-.069-.133-.284-.19-.433-.281-.057.175-.21.4-.15.512A2.425,2.425,0,0,0,891.276,701.017Zm62.4-61.171c.01.322.02.644.034,1.094C954.327,640.5,954.39,640.178,953.679,639.846ZM818.036,683.194c-.3.552-.3.552-.047,1.087C818.316,683.847,818.316,683.847,818.036,683.194Zm101.832-32.073,1.028,1.842A2.192,2.192,0,0,0,919.868,651.122Zm49.006-15.1-.227.112c.1.418.115.9,1,.938ZM851.822,677.2c.551-.405.333-.721-.153-1Q851.746,676.7,851.822,677.2Zm-2.89,18.045-.833-.57c-.4.344-.272.6-.015.836Zm6.59,1.477.226,1.089C856.179,697.328,856.111,696.953,855.523,696.718Zm8.695,3.779c.3-.181.509-.233.564-.354a1.823,1.823,0,0,0,.1-.657c0-.022-.242-.1-.259-.071a2.654,2.654,0,0,0-.256.5A5.8,5.8,0,0,0,864.217,700.5Zm75.926-24.073.1.225c.2-.044.487-.023.575-.146.192-.268.081-.521-.316-.648Zm-66.568-5.243.256-.125c.083-.427-.06-.743-.713-.81Zm-32.17-8.316c.286.541.52.641.785.438.08-.061.029-.292.037-.445Zm76.652-24.089c-.354.395-.575.657-.292,1.1C918.233,639.645,918.382,639.366,918.058,638.776Zm-64.107,29.168c-.381.43-.552.859,0,1.277Q853.95,668.583,853.952,667.944Zm49.511-14.186c-.267.228-.55.358-.553.495-.009.352.223.59.675.7Zm-86.78,29.256a3.487,3.487,0,0,0,.139.775c.031.072.273.051.419.073a1.989,1.989,0,0,0,.02-.67C817.232,683.1,816.946,683.09,816.682,683.015Zm74.462-21.309c-.057.469-.087.787.327,1.038C891.64,662.315,891.76,661.983,891.144,661.706Zm-39.292,35.056c.236-.662.236-.662-.244-1.118Zm-13.351-.893.618.007c-.052-.352.16-.727-.32-1.035ZM885,669.453c0,1.044,0,1.044.836.9Zm23.554-21.127c-.335.332-.484.627-.225,1.045C908.354,649.04,909.035,648.906,908.551,648.326Zm-97.828,26.2c-.055.387-.245.749.344,1.026C811.067,675.134,811.417,674.734,810.723,674.529Zm139.2-43.676c-.492.216-.665.441-.38.89C949.957,631.6,950.1,631.373,949.925,630.853ZM826.813,694.4c.135.257-.228.7.32.793C827.459,694.518,827.459,694.518,826.813,694.4ZM954.1,653.874l-.254.2c.229.333.361.748.74.955l.2-.153ZM925.071,690a.5.5,0,0,0,.093-.842.37.37,0,0,0-.365-.012c-.342.335-.141.607.151.845C924.972,690.012,925.016,690,925.071,690Zm27.3-42.071c.251.289.264.81.875.9A1.03,1.03,0,0,0,952.373,647.932Zm-27.535-6.885c.76-.237.76-.237.731-.878Zm42.968,6.724-.318-1.01-.4.428Zm-80.63,28.622-.269.014a.766.766,0,0,0,.3,1.1Q887.191,676.949,887.177,676.393Zm56.359-41.445-.3-.077c-.475.243-.3.525.113,1.007ZM876.7,693.864a1.2,1.2,0,0,0-.553-1.119A1.267,1.267,0,0,0,876.7,693.864Zm93.039-68.219.274-.171-.531-.8C969.06,625.285,969.479,625.43,969.74,625.645Zm-60.38,23.227c.345-.767.345-.767-.423-1.006Zm32.084,28.966c-.166.68-.166.68.346,1.1Zm-12.759,9.1-.2-.074c-.114.32-.552.538-.243,1.2Zm22.885-50.382c-.432.41-.577.642-.244.853.11.07.3.009.459.008Zm-50.3,27.753-.365-.974-.276-.057-.165.575Zm45.536-.242-.176-.163c-.135.1-.342.169-.382.3-.033.1.133.271.272.519Zm-39.566-13.947.882.578C908.143,649.907,907.794,650,907.241,650.118ZM955,648.591l-.329-.726C954.25,648.365,954.287,648.6,955,648.591Zm-29.472-4.07c.181.528-.2.932.36,1.253C926.116,645.315,926.059,644.987,925.526,644.52ZM968,648.6c.65.386.65.386.827-.261Zm-23.3,3.729.214-.12-.458-.8-.161.091Zm-35-1.713c.5.126.676-.04.654-.364-.006-.091-.221-.168-.34-.251Zm17.722,35.659c.468-.272.53-.635.527-1.19C927.666,685.494,927.328,685.718,927.422,686.273Zm37.8-39.649c.8.35.8.35.745-.324ZM857.452,681.085l-.268.055c-.181.38-.053.652.474.966Zm63.607-42.592c.111-.486.236-.816-.221-1.159C920.7,637.756,920.475,638.075,921.058,638.493Zm-59.666,50.66.2.073c.352-.487.352-.487.091-.918Zm-26.152,5.061-.15-.139-.406.446.511.28C835.216,694.54,835.228,694.377,835.241,694.214Zm131.479-48.722.263.089c.206-.215.416-.429.013-.859Zm-127.948,48.4c.167-.829.167-.829-.3-1.319Zm23.4-9.255c-.519.353-.393.578.177.905Zm-39.716-2.216-.337.055q.067.366.134.733l.257-.044Zm46.674,6.34.245-.1L869,687.9l-.188.084a3.164,3.164,0,0,0,.112.467A1.547,1.547,0,0,0,869.131,688.758ZM853.48,700.626c.322-.5.231-.734-.174-.9C853.353,699.962,853.4,700.2,853.48,700.626Zm93.071-51.586c.036-.4-.044-.7-.567-.568Zm-1.274,12.573-.2-.165c-.161.051-.4.058-.46.164s.078.309.129.47l.228.061Zm-39.238,21.654c.1-.478.1-.478-.279-.886ZM854.171,666.39h-.309l.037.708h.239Q854.154,666.744,854.171,666.39Zm34.857-3.645c.507.214.683,0,.729-.4.008-.07-.09-.153-.15-.247Zm48.178-8.679.21-.131-.418-.688-.217.135Zm18.888-10.631c-.312.477-.24.756.4.846ZM945.1,631.241a2.858,2.858,0,0,0-.049.563c.007.053.15.088.23.132a1.4,1.4,0,0,0,.176-.414C945.468,631.461,945.294,631.384,945.1,631.241Zm-37.621,32.444.865.206C908.273,663.287,908.061,663.2,907.483,663.685Zm18.15-6.089c-.432-.6-.432-.6-.917-.39Zm36.573-7.974c.535.038.535.038.434-.5Zm-24.872-12.376.27-.093a5.393,5.393,0,0,0-.2-.508c-.009-.018-.156.034-.238.053Zm-27.023,30.021-.183.008c.017.239.024.481.062.717.005.033.161.042.322.08Zm-9.518,4.087c-.166.384-.122.653.445.84ZM927.9,642.528c-.443-.488-.443-.488-.846-.1Zm-36.653,36.2-.232.01q.013.5.025,1l.143-.006Q891.214,679.234,891.246,678.733Zm-39.092,13.738-.272.047.179,1.024.283-.048Q852.249,692.983,852.154,692.471Zm42.728-12.885-.314-.037q0,.428-.006.856l.22.01ZM843,661.43c.019.475.03.731.047,1.146C843.523,662.166,843.508,661.91,843,661.43ZM940.1,673.442l-.17.065.279.885.214-.079Zm-40.417,20.883.236-.027c-.022-.229-.039-.46-.079-.687a1.669,1.669,0,0,0-.349-.023Zm1.247,2.045-.353.062q.083.368.167.736l.242-.037Zm9.889-.481.1.271.524-.229-.182-.325Zm-1.828,1.811.252-.084a5.294,5.294,0,0,0-.172-.615c-.017-.043-.166-.033-.318-.057Zm7.915-46.65c-.276.519-.155.746.365.82Zm-26.64,11.338.183-.64C889.918,661.984,889.918,661.984,890.27,662.388Zm16.943-3.556c.141-.879.141-.879-.323-1.026Zm-47.943,30.889c.184-.47.287-.741-.244-.775Zm23.4-15.936c-.181-.071-.314-.173-.4-.143a.331.331,0,0,0-.138.3.342.342,0,0,0,.291.172C882.508,674.1,882.564,673.938,882.672,673.785Zm85.657-48.349-.239.125.317.473.147-.082ZM832.951,695.489l.216-.092-.175-.47c-.053.03-.155.068-.152.089C832.865,695.176,832.911,695.332,832.951,695.489Zm60.366-27.058-.251.1.3.556.179-.09ZM836.159,679.8l-.21.069.2.4.137-.064Zm16.152,14.717c-.145.534-.145.534.22.963C852.44,695.084,852.375,694.8,852.31,694.514ZM886.735,668.6l-.128.106c.039.122.043.281.124.356a1.094,1.094,0,0,0,.389.143l.105-.173Zm57.672,2.387-.212.129.338.42.112-.077Zm-85.65,27.805.268-.082-.272-.6-.187.076Zm-.246,3.178.266-.1-.269-.649-.209.082Zm73.476-67.978-.167,0c0,.173,0,.345,0,.517,0,0,.124,0,.19.005Zm19.381,6.4c.14.41.324.547.607.113ZM836.584,692l.044-.225-.707-.185c.184.231.231.343.312.377A1.133,1.133,0,0,0,836.584,692Zm82.235-31.4h.236q0-.311-.006-.622h-.229Q918.819,660.294,918.819,660.606Zm22.513-1.135.24-.11c-.079-.133-.152-.27-.243-.394-.013-.018-.112.028-.172.045Zm-102.47,32.657.2.038q.026-.293.052-.587l-.164-.019Zm63.1-18.623-.193.1.333.672.179-.09Zm9.159-13.7-.279-.115c-.022.084-.085.187-.057.247s.146.092.224.136Zm34.179-6.927-.174.108.307.536.213-.134ZM840.023,687.288l-.282-.062q0,.336-.006.671l.189.013Q839.973,687.6,840.023,687.288Zm64.737-20.576c.184.491.184.491.574.38Zm-86.934,5.562.172-.2-.415-.355-.131.132Zm144.3-45.562.263.035q.007-.291.014-.581l-.178-.017ZM812.341,674.423l-.251.02a1.366,1.366,0,0,0,0,.332,1.048,1.048,0,0,0,.153.26l.131-.047Q812.36,674.706,812.341,674.423Zm134.867-41.874.2-.081-.232-.431-.146.068Zm-98.367,65.8-.226-.188-.349-.043a1.37,1.37,0,0,0,.008.368c.012.043.164.089.228.067A1.76,1.76,0,0,0,848.842,698.353Zm6.152-1.579c-.189-.045-.314-.079-.44-.1-.009,0-.067.16-.046.177a.932.932,0,0,0,.31.172C854.84,697.034,854.907,696.9,854.994,696.773Zm-4.955,3.852.146-.045-.073-.432-.243.1Zm62.244-53.6c-.154-.092-.249-.19-.3-.171a1.326,1.326,0,0,0-.305.219c.09.069.182.193.27.191S912.132,647.143,912.282,647.029Zm-2.126,1.778-.351.059c.055.173.1.348.171.516a.392.392,0,0,0,.174-.016C910.161,649.18,910.157,648.993,910.156,648.807Zm-92.859,29.5-.293-.025.086.621.138,0Zm17.3-4.891.237-.116-.321-.476-.163.1Zm21.35,29.9c-.075.157-.157.252-.135.3a.332.332,0,0,0,.216.174c.062.008.138-.094.208-.147Zm10.1-3c0-.06,0-.119,0-.179l-.495-.046q.009.132.019.265Zm42.364-49.328-.121-.153-.383.307c.042.046.115.137.123.132C908.16,651.189,908.284,651.089,908.409,650.991Zm-5.307,1.8c-.637.027-.513.241-.174.619Zm-2.708,42.957c.1-.146.207-.237.192-.3-.027-.1-.13-.184-.2-.275-.058.067-.168.14-.162.2A1.34,1.34,0,0,0,900.394,695.747Zm3.525-40.069a1.657,1.657,0,0,0-.3-.138,1.3,1.3,0,0,0-.2.368c-.008.023.184.15.2.137A3.325,3.325,0,0,0,903.919,655.678Zm11.205,36.608c-.086-.111-.13-.219-.2-.242-.05-.016-.2.084-.2.13a.3.3,0,0,0,.14.222C914.912,692.42,915.011,692.339,915.125,692.287Zm35.9-63.918-.25.039q.061.32.123.639l.22-.034Q951.07,628.69,951.023,628.368Zm-35.24,64.694c-.367-.059-.494-.119-.551-.079a.4.4,0,0,0-.177.293.322.322,0,0,0,.267.181C915.435,693.432,915.521,693.3,915.784,693.062ZM957.6,637.823c.074-.173.182-.312.148-.37a.368.368,0,0,0-.3-.161c-.083.014-.141.174-.21.269Zm-126.8,48.643c-.1-.043-.208-.128-.243-.1-.065.045-.139.2-.113.231a.9.9,0,0,0,.275.173Zm14,9.934.123.015a1.331,1.331,0,0,0,.116-.348c0-.083-.074-.171-.116-.256l-.124.048Q844.795,696.129,844.8,696.4Z" transform="translate(-56.43 -429.469)" fill="#f22059"/>
    <path id="Path_25" data-name="Path 25" d="M811.6,161.142l-.3.851c.334.5.742-.041,1.11.064.185.585-.4.422-.618.654l.23,1.258-.456.076c.049.151.084.426.147.433.955.1.83.886,1.093,1.5.549,1.287.459,2.674.825,3.978.177.632.391,1.254.589,1.88l.28.093.039-.682c.493.077.916.465,1.205-.166-.311-.26-.621-.517-.93-.776a2.467,2.467,0,0,1-.817-2.123c0-.1.1-.241.059-.3-.724-1-.416-2.344-1.134-3.341-.036-.05-.025-.133-.042-.243l.717-.925.988-.172c-.584-.455-1.2.422-1.8-.275a4.437,4.437,0,0,1,2.291-.617c0,.328,0,.586,0,.836l1.2.486c-.1.658-.172,1.3.66,1.7.018-.253.033-.467.052-.743l1.041.1c.541.347.134,1.57,1.459,1.194l-.823-.68c.194-.454.611-.953.537-1.362-.116-.641.307-1.077.336-1.643a1.95,1.95,0,0,1,.555-.966c.4-.482.495-.586.326-1.124a.643.643,0,0,1,.181-.731,7.027,7.027,0,0,1,.83-1.01,4.861,4.861,0,0,1,1.223-.448,3.659,3.659,0,0,0,.342-.171l-.545-.74c.612-.041.485.9,1.2.575l-.457-.671c.353-.665.075-1.674,1.068-2.2l.6.745a2.3,2.3,0,0,0,.16-.442c.08-.806.076-.807.866-.923a5.09,5.09,0,0,0,.443-1.761c-.095-.788.828-.834.816-1.47l1.113-.03.7-1.972.869.082a1.734,1.734,0,0,1,.957-1.659c.263-.123.542-.212.817-.309.19-.067.446-.063.566-.191.382-.405.581-.25.862.128a14.2,14.2,0,0,0,1.174,1.238c.029-.461.056-.883.082-1.3l.335.264-.992-1.371.776-.527a2.944,2.944,0,0,0,.954.26c.321-.024.636-.38.936-.358.461.035.6-.042.462-.605l.652.6c.3-.521.573.036.734.075l1.347-.653-.046-.011.118.615c.75-.155.55-.6.435-1.006l-.008.02.81-.255a1.792,1.792,0,0,1,.963,1.475,2.875,2.875,0,0,1-.47,1.7c-.066-.6-.2-1.117-.992-1.3a5.276,5.276,0,0,0,.723,1.768,1.326,1.326,0,0,1,.378,1.065c.021.484.121.965.186,1.447l.25.009a3.488,3.488,0,0,0,.237-.719,11.811,11.811,0,0,0,.136-2.139c-.048-.622.051-1.323-.465-1.842.568-.223.583-.656.471-1.166a10.732,10.732,0,0,1-.11-1.138,11.937,11.937,0,0,1,1.279,1.121,1.213,1.213,0,0,1,.147.774c-.048.993-.164,1.984-.184,2.978a7.552,7.552,0,0,0,.223,1.391c-.357.091-.363.345-.325.647.132,1.073-.1,2.183.359,3.226a1.686,1.686,0,0,1,.031.713c-.041.986-.1,1.972-.135,2.959-.013.362-.047.75.28,1,.484-.036.4-.393.4-.631-.006-.78-.049-1.561-.1-2.34-.035-.583-.1-1.164-.148-1.746q-.167-1.878-.339-3.756c0-.029-.038-.056-.059-.084.384-.181.483-.419.454-.893-.085-1.418-.079-2.844-.033-4.264a6.753,6.753,0,0,1,.41-1.5c.517.231.918.357,1.1-.386l.371.709c.267.017.284-.647.738-.251.073.064.522-.3.862-.511.32.507.771.459,1.27.029l.7,1.223.709-1.2c.865-.035,1.672-.082,2.48-.094a2.213,2.213,0,0,1,1.607.826c.163.166.314.343.476.522l1.043-1.5c.36.336.606.544.827.775.439.458.779,1.051,1.561.98.144-.013.3.142.453.187.541.154,1.082.431,1.645.077.27-.169.529-.354.858-.576a1.948,1.948,0,0,0,.131.619c.225.386.486.78,1.054.548.091-.037.235-.089.29-.048.288.215.529.6.836.655.341.065.755-.167,1,.244a.879.879,0,0,0,1.041.451,1.129,1.129,0,0,1,.776.148c1.012.7,2.164,1.138,3.216,1.759a9.738,9.738,0,0,1,2.13,1.191,4.841,4.841,0,0,0,1.721.666c0,.016.026-.109.088-.377a5.021,5.021,0,0,0,2.789,1.944c0,.514.315.877.949,1.032s.714.754.741,1.321c.707.147.86-.42,1.1-.979.282.538.415.9.914,1.1.4.157.619.752.979,1.234.627-.219,1.132-.056,1.348.769.149.566.547.363.885.142-.072.377-.507.816.165,1.069.591-.487-.007-.736-.174-1.066,0-.277.191-.439.36-.225a3.083,3.083,0,0,1,.969,1.96.916.916,0,0,0,.565,1.048,2.858,2.858,0,0,1,.614.5c.26.231.161.407-.1.548.054.3.108.609.18,1.014.656-.616-.034-.734-.181-1.016l.914-.01c.047-.443.087-.812.129-1.209.447.544.447.544.509,1.6.344.105.728.209,1.1.341a2.778,2.778,0,0,1,.738.343c.739.552.73.563,1.51.011.307.347.34.706-.113.881-.315.121-.387.294-.31.524.046.139.262.225.407.326.186.129.377.25.639.422.246-.064.516-.575.961-.072.146.165.653-.369,1.041.008a7.827,7.827,0,0,0,.828.645c.055.956.071,1.766.164,2.568a2.859,2.859,0,0,0,.439.827,7.421,7.421,0,0,0,.444-.994c.1-.381-.012-.9.616-.88s1.356-.147,1.623.722c.037.121.166.215.249.318-.427-.118-.851-.233-1.3-.356a2.482,2.482,0,0,0,1.305,1.971l.264-1.066-.761.027-.037-.161.53-.421c.709-.1,1.022.47,1.437.9.671-.262,1.339-.717,2.047.054l-.576.788c1.348.093,1.763.573,1.846,2.046.009.157.277.3.3.458s-.113.365-.2.61l.778.368.186-.53c.933.077,1.6.922,2.6.891l-.567-.459.928-1.045a1.714,1.714,0,0,0,.458.039c.981-.076.994-.069.914.932.234.127.575.194.663.38.273.576.681.608,1.182.4l.177.754c1.348-.433,1.824-.321,2.531.557-.171.273-.437.546.174.97l-.211-.992.554-.279.3.55c.542-.01,1.053-.018,1.57-.022.16.289-.413.686.3,1.006l-.322-1.021c.9.282.9.282.978,1.166a2.25,2.25,0,0,1-.041,1.366c-.232.478.383.683.593,1.03l.186-.088-.226-.717c.306-.22.582-.417.855-.615.234-.17.41-.587.76-.322.161.122.178.45.233.691a2.97,2.97,0,0,1,.092.7c-.006.3-.066.595-.122,1.049l.864,1.111c-.048-.742.474-1.261-.193-1.728l.665-.668c.918.29.137.726.073,1.132l.62.131c0,.227,0,.462,0,.716l-2.257.991-1.159-1.144-.159.752c-.435-.43-.81-.173-1.2.2-.388-.62-.867-.747-1.416-.342-.168.124-.413.3-.415.461a1.239,1.239,0,0,1-.774,1.111,2.969,2.969,0,0,1-2.2.43c-.859.985-1.207.969-2.291-.186-.389.359-.787.713-1.171,1.083a4.367,4.367,0,0,1-2.078.794,3.5,3.5,0,0,1-1.323-.116c-.4-.057-.8-.143-1.3-.235l-.466.6a2.578,2.578,0,0,1-.566-.1c-.877-.348-1.169-.912-.777-1.768.5-1.1-.143-1.972-.423-2.924a1.669,1.669,0,0,0-.211.035,10.806,10.806,0,0,1,.213,1.119.766.766,0,0,1-.158.554c-.873.867-.592,1.925-.417,2.9.167.93.227.906-.722,1.043a3.7,3.7,0,0,1-2.205-.31,1.17,1.17,0,0,0-1.416.206,1.575,1.575,0,0,1-2,.194c-.632-.331-1.2-.774-1.928-1.25l-.447.968,1.119.312c-.934.532-1.711.138-2.569.3.111-.594.075-1.059-.625-1.3l-.384.9c-1.14.294-2.262.609-3.4.867-.682.155-.691.115-1.358-.271a1.232,1.232,0,0,1-1.4.5c-.422-.061-.86.008-1.288-.022a4.722,4.722,0,0,1-1-.172c-.452-.132-.843-.457-1.375-.329-.141.034-.335-.16-.507-.245-.552-.274-1-.8-1.759-.538-.242.084-.614-.2-.977-.339-.794.541-1.346.476-2.385-.341l-1.013.319c-.183-.756-.991-1.175-.858-2.034a2.253,2.253,0,0,1-.592-2.359l-.3.008c-.129.494-.246.991-.39,1.48-.154.524-.332,1.04-.518,1.619a2.1,2.1,0,0,1-1.467-1.848c-.087-1.031-.157-2.062-.241-3.093a2.906,2.906,0,0,0-.171-.477c-.092.445-.153.7-.2.954a6.45,6.45,0,0,1-.2,1.215,1.164,1.164,0,0,0,.137,1.151,2.135,2.135,0,0,1-.856,2.98.83.83,0,0,1-1.094-.3c-.46-.011-.9-.017-1.333-.033-.419-.015-.838-.041-1.492-.073l-1.615-3.335a11.521,11.521,0,0,0-.953,1.015,2.254,2.254,0,0,0-.26.772c-.116.433-.183.882-.336,1.3-.1.275-.243.6-.668.5-.086-.019-.26.009-.271.048-.183.7-.6.342-.872.222l-.936.695-.47-.736c-.18.21-.417.361-.452.551a1.452,1.452,0,0,1-.888,1.056.963.963,0,0,1-1.1-.123,3.225,3.225,0,0,1-1.163-2.411c-.032-.232-.081-.462-.114-.693-.146-1.012-.68-1.955-.429-3.044.118-.512-.248-1.093-.87-1.713.131.94.2,1.752.365,2.547.218,1.082.51,2.149.754,3.226a1.592,1.592,0,0,1,.06.818,1.543,1.543,0,0,0,.144,1.267c.282.62.079.924-.627,1.074-.581.123-1.138.573-1.766.142a2.639,2.639,0,0,1-.41-.251,19.627,19.627,0,0,0-2.259-2.1c.114.552.258,1.1.331,1.656a9.132,9.132,0,0,1,.071,1.54c-.02.506-.3.763-.884.558l-.115,1.019c-1.063-.2-1.349.53-1.588,1.5-.414-.651-.8-1.073-.605-1.8-.731.033-.792-.647-1.157-1.084-.061.108-.168.232-.145.267.588.873.213,1.836.272,2.756a.824.824,0,0,1-.565.879c-.435.2-.845.456-1.367.742l-.152-.813a2.175,2.175,0,0,0-.368-.217c-1.233-.477-1.234-.474-1.851-.319a9.994,9.994,0,0,1,.071,1.511.781.781,0,0,1-.486.553.815.815,0,0,1-.7-.285,18.2,18.2,0,0,1-.863-1.734l-1.474.243c-.076-.18-.152-.359-.287-.677-.239.572-.072.683.309.635a14.519,14.519,0,0,1-.7,1.732c-.068.127-.373.549-.766.219-.108-.091-.35-.021-.589-.027.568.879.58.884,1.278.647l.663.937.543-.641a2.862,2.862,0,0,1-.087,1.806,1.961,1.961,0,0,0-.061,1.767c-.716-.225-.5-.834-.75-1.277l-.27,1c-.868-.517-.276-1.707-1.176-2.154-.431.542.195.939.211,1.417a9.246,9.246,0,0,0,.318,1.524,1.531,1.531,0,0,1-1.017-.867,28.332,28.332,0,0,1-1-2.776,14.073,14.073,0,0,1-.287-1.925l.465-.051a1.577,1.577,0,0,0-.847-1.069l.423,1.143q-.445-.159-.892-.316c-.16-.15-.408-.273-.463-.456a15.941,15.941,0,0,1-.569-2.277,2.074,2.074,0,0,0-.681-1.373l-.541,1.223c.654.107.714.552.849,1.037.2.717.012,1.567.69,2.215l.715-.376-.3.64a3.657,3.657,0,0,1,1.081,3.2,1.042,1.042,0,0,0,.382.974c.49.423.36,1.024.418,1.545.06.542-.443.828-.827,1.094-.163.113-.454.04-.852.06l.658.643c-.8.31-.407,1.551-1.587,1.7l.341-.551c-.619-.1-.978.4-1.517.651l-.633-.721.928-.662-.317-1.006h-.182c.005.321.011.642.017,1.035-.8-.033-.657-1.025-1.444-1.135.433-.4.531-.717.255-1.187a20.639,20.639,0,0,0-1.623-2.3c-.16.265-.365.448-.338.588.074.392.132.938.4,1.113.637.417.607.907.476,1.511a4.781,4.781,0,0,0-.033.844l-.728.388c-.068-.117-.176-.224-.155-.281.1-.272.242-.531.4-.853l-.726-.408-.594,1.8c-.576.029-.839-.38-1.085-.721-.8-1.115-1.579-2.25-2.337-3.4a7.058,7.058,0,0,1-.4-.954c-.157-.338-.342-.664-.577-1.115l-.714.78c.09.14.125.266.2.3a1.8,1.8,0,0,1,1.062,1.692c-.014.745.024,1.491.043,2.361l-.983-.615c-.389.441.1.979-.095,1.437-.628-.321-.675-.449-.7-1.933l-.89.145c-.034.617.52,1.087-.023,1.635l-.27-.655c-.674-.256-.928.5-1.446.6s-1.035.121-1.659.189c-.254-.4-.42-.884.3-1.514a1.135,1.135,0,0,1-1.5-.766,10.082,10.082,0,0,0-1.806-2.057c-.177,1.359.507,2.648-.489,3.763a1.139,1.139,0,0,0-1.431.186c-1,.791-1.369.8-2.476-.1-.26.251-.674.474-.784.8-.172.509-.517.727-.914.622a1.6,1.6,0,0,1-.9-.728c-.219-.408-.178-.957-.788-1.24-.051.589-.1,1.149-.147,1.709l-1.264.154-.252-.432c-.076,0-.156-.019-.21.01-.381.2-.672.457-1.21.158a1.408,1.408,0,0,0-1.282.317,2.076,2.076,0,0,1-1.892.465,2,2,0,0,1-1.567-.875c-.077-.106-.157-.209-.235-.312-.566.381-.566.381-.175,1.359l-1.144,1.012-1.312-.492c-.222.32-.618.631-.6.924.031.707-.511.894-.908,1.058a1.364,1.364,0,0,1-1.469-.083,1.2,1.2,0,0,0-.348-.115c-.243.442-.467.887-.729,1.309a1.159,1.159,0,0,1-.491.5,1.682,1.682,0,0,0-1.188.884c-.035.083-.227.111-.352.141-.606.146-.965.458-.781.919.265.662-.221.937-.419,1.4l-.76-.185-1.241,2.025-2.951.425a18.559,18.559,0,0,0-.691,2.289c-.055.314.342.78-.088,1-.654.335-1.149.983-1.97,1.008a2.018,2.018,0,0,0-.632.232,4.442,4.442,0,0,0-.8.347c-.634.422-1.558.308-1.99,1.119a6.473,6.473,0,0,1-.706.893,2.965,2.965,0,0,1-1.721,1.165,3.7,3.7,0,0,0-.149.55,5.441,5.441,0,0,0,.009.71c-1.234.186-1.883,1.217-2.688,2.033l-.768-1.11-1.205.38-.339.756,1.387.88c-.777.8-1.439,1.528-2.155,2.2-.458.43-.956.314-1.251-.3-.2-.411-.387-.723-.924-.686l-.56,1.127.527.069c0,.045.033.111.012.152a2.752,2.752,0,0,1-1.453,1.256,13.934,13.934,0,0,0-1.421.811c-.061-.071-.185-.359-.355-.39-.784-.142-1.091-.783-1.519-1.311-.166-.206-.365-.5-.58-.531-.931-.131-1.232-.737-1.432-1.593-.056.145-.186.31-.154.432a7.964,7.964,0,0,0,.493,1.461,2.224,2.224,0,0,0,.673.735c1.076.81,1.1,1.44.02,2.392l-.642-.22c-.728.658-1.378,1.258-2.045,1.838a1.135,1.135,0,0,1-.465.169,3.436,3.436,0,0,1-2.439,0c-.215-.1-.529,0-.791.005-.228,1.3-.462,1.685-1.832,1.3a3.168,3.168,0,0,1-2.6.821.588.588,0,0,1-.427-.238c-.292-.513-.719-.479-1.2-.383-.448.09-.451.075-.714.979l-.716-.068-.359.619-.309-.438c-.622.351-.314.947-.449,1.444l-2.436.321c-.482-.245-.5-.6-.08-1-.279-.292-1.062-.274-.515-.98l.912.148c-.3.734.423.891.8,1.555.069-.649.112-1.056.165-1.548-.948-.124-.834-1.132-1.282-1.72-.174-.229.207-.472.606-.415.374.054.766.473,1.131-.076l.352.9c.407-.136.515-1.1.124-1.239-.589-.2-.552-.722-.781-1.092a1.262,1.262,0,0,1,.647-1.9,8.115,8.115,0,0,1,.84-.27c-.384-.8.609-.924.719-1.535.145-.81.872-.855,1.621-.954l-.355-.755.65-.288.4-1.5a.981.981,0,0,1-.146-.159c-.344-.44-.289-.683.191-.925.267-.135.525-.287.634-.346.4.094.7.155.989.238a3.773,3.773,0,0,1,.453.192c-.109.207-.221.414-.418.781.773-.2.605-.492.388-.794a.583.583,0,0,0,.664-.467,7.043,7.043,0,0,1,.639-1.1c.3.248.52.433.745.614.213.2.412.422.635.614a1.374,1.374,0,0,0,1.291.407l-1.6-1.477c.73-.256.73-.256.533-1.057l-.5,1.076-.387.471.163-1.182c-.01-.071-.675.075-.408-.423.042-.078.063-.255.033-.271-.85-.445-.378-1.256-.527-1.891-.051-.22,0-.464-.056-.684a1.13,1.13,0,0,1,.781-1.524,6.423,6.423,0,0,1,.778-.181c.3-.611.012-1.551,1.035-1.684l.4.41-.626.418.836.622a2.11,2.11,0,0,0,0-2.184l-.612.762c-.548-.864-.485-1.006.673-1.733,1.108.528,2.136,1.035,3.18,1.51.819.373,1.658.7,2.485,1.058.092.039.231.106.242.176.148.966.774.743,1.4.593.187-.045.492-.077.582.025.627.718,1.58.373,2.307.744.1.05.29-.08.5-.146-.461-.919-1.387-1.034-2.065-1.47a5.75,5.75,0,0,0-1.471-.419c-.717-.211-1.436-.417-2.139-.669-.931-.333-1.857-.682-2.765-1.073a4.8,4.8,0,0,1-1.883-1.7l1.139-.93-.855-.931c.145-.338.389-.572.749-.22a1.186,1.186,0,0,0,1,.355,1.951,1.951,0,0,1,.791.213c.974.393,1.939.807,2.913,1.2a5.592,5.592,0,0,0,.737.168c-.167-.26-.232-.482-.332-.5a5.346,5.346,0,0,1-2.137-1.264c-.572-.411-1.171-.784-1.858-1.24a7.273,7.273,0,0,0,.633-.9,11.251,11.251,0,0,0,.864-1.953c.07-.238-.252-.592-.349-.8a5.1,5.1,0,0,0,.485-1.114c.093-.553.572-.513.966-.676-.217-.5-.956-.823-.329-1.445.309-.306.465-.867.812-1,.33-.129.818.145,1.325.263-.11-.214-.153-.462-.289-.534a1.341,1.341,0,0,1-.614-1.923,3.465,3.465,0,0,0,.112-.547c.549.121,1.091.225,1.527-.305l-.639-.893.974-.7,1.112.39c-.817-1.4-.45-2.741-.625-3.943.472-.235.879-.317,1.069-.565a1.847,1.847,0,0,0,.276-1.039c.015-.8.164-1.048,1.126-1.438a4.08,4.08,0,0,1-.532-1.348,4.322,4.322,0,0,1,.482-1.4l1.263.276c-.169-.708-.32-1.233-.409-1.768a3.154,3.154,0,0,1,.063-.783l.914.11a1.065,1.065,0,0,0-.025-1.158c-.234-.457-.071-.971.36-1,.822-.048,1.194-1.042,2.055-.729.09-1.307.09-1.307,1.144-1.71a2.473,2.473,0,0,1-.019-.872c.07-.206.369-.334.6-.527-.014-.125-.04-.294-.052-.464s-.011-.345-.014-.435a7.984,7.984,0,0,1,1.1-.925,6.54,6.54,0,0,1,1.269-.42l-.446-1.021.524-1.135.5.081,1.533-1.81.735,1.39c.148-.32.3-.5.3-.684.016-.811-.046-1.624,0-2.432a4.512,4.512,0,0,1,.331-1.078l.283.065c-.056.442-.113.884-.17,1.335l1.066.747.6-.394-.419-.565.546-.172-.191-.439c.069-.033.136-.1.186-.086a1.406,1.406,0,0,1,1.068.934,28.653,28.653,0,0,0,1.694,3.027c.052.088.23.1.566.241-.229-.468-.35-.763-.51-1.035-.506-.858-1.034-1.7-1.536-2.563-.1-.167-.226-.459-.154-.56.367-.513.014-1.075.171-1.585a13.806,13.806,0,0,1,2.732,4.082c.076.2.3.346.449.517-.386-1.89-1.808-3.138-2.5-4.795l-.678.214c-.9.037-1.329,1-2.269,1.153-.034-.289-.063-.537-.1-.833.992.177,1.069-.6,1.211-1.012l1.465-.919a3.806,3.806,0,0,0,.459.7,1.666,1.666,0,0,0,.736.447c.075.019.258-.376.467-.7l2.864,4.456c.033-.29.1-.452.055-.555-.344-.71-.674-1.432-1.086-2.1-.478-.779-1.035-1.51-1.609-2.337l.375-.241c-.051-.449-.1-.908-.179-1.569l1.041.774c.11-.8.225-1.626.376-2.723a6.7,6.7,0,0,1,.717,1.173c.271.824.239.834,1.267,1.4l-.86-2.133a1.017,1.017,0,0,1,.908.581,18.432,18.432,0,0,0,2.629,3.907c1.037.982,1.5,2.294,2.477,3.277.5.5.616,1.373,1.01,2.012.679,1.1,1.44,2.146,2.224,3.3l.236-1.726-.732.071c-.052-.038-.137-.067-.156-.12a14.713,14.713,0,0,0-2.114-3.261,8.051,8.051,0,0,1-.451-.8,6.974,6.974,0,0,0-2.069-2.864.622.622,0,0,1-.165-.256c-.748-1.565-2.058-2.757-2.847-4.291a1.674,1.674,0,0,1-.195-.871.751.751,0,0,1,.448-.478c.111-.043.374.137.478.282.322.447.581.938.9,1.387.633.892,1.294,1.765,1.935,2.652.157.217.27.465.418.69.207.316.394.667.853.663.419.712.84,1.42,1.257,2.131.258.439.514.88.763,1.324a8.839,8.839,0,0,0,1.113,1.931,14.219,14.219,0,0,1,1.434,2.318,12.255,12.255,0,0,1,1.039,2.748l.173-.168a3.007,3.007,0,0,1,.789.431c.381.392.688.855,1.031,1.285a1.16,1.16,0,0,0,.891.6c-.506-.907-.941-1.7-1.388-2.484a14.418,14.418,0,0,0-1.055-1.76c-.43-.553-.629-1.307-1.362-1.623-.158-.068-.251-.307-.356-.478-.772-1.254-1.536-2.513-2.31-3.765-.216-.349-.618-.659-.663-1.022a1.6,1.6,0,0,0-1.369-1.441c-.316-.564-.6-1.151-.955-1.685-.532-.792-1.173-1.515-1.668-2.328a21,21,0,0,1-1.027-2.2c.883-.325,1.183.447,1.466.817,1.215,1.593,2.318,3.272,3.43,4.941.225.337.4.437.72.19a7.251,7.251,0,0,0,.587,1.388,19.218,19.218,0,0,1,2.059,3.733,3.36,3.36,0,0,0,.361.535c.354-1.115-.268-1.823-.731-2.56-.505-.8-1.054-1.583-1.606-2.356a7.179,7.179,0,0,0-.675-.723c-1.222-1.809-2.436-3.624-3.677-5.421a3.032,3.032,0,0,0-.729-.542c.735-.2.859-1.364,2.019-1.208l.937,2.139a1.223,1.223,0,0,0-.12-1.346.946.946,0,0,1,.1-1.3l1.642.074c.083.63.153,1.158.223,1.685l.146-.005.22-1.243c.923.271,1.022-1.175,2.1-.852.437.338.288,1.094.617,1.732.511-.6.114-1.266.33-1.821.531-.238.575.368.969.554.137-.576.809-.576,1.116-1.077.11-.179.775-.095,1.159-.008a8.373,8.373,0,0,1,1.32.548c.4-.595.948-.3,1.559-.264a18.9,18.9,0,0,1,4.076,1.057,1.78,1.78,0,0,1,.815.426,1.88,1.88,0,0,0,1.429.633,1.387,1.387,0,0,1,1.107,1.355.8.8,0,0,0,.1.292c.029.057.092.1.193.2a1.7,1.7,0,0,1,1.84-.659l.224.948Zm35.061,15.153a.955.955,0,0,0,.031-1.509c-.011.554-.02,1.033-.029,1.511l.347.784C847.263,176.525,846.87,176.467,846.663,176.295Zm-46.075,17.442,1.1,1.4a1.288,1.288,0,0,0-1.116-1.373c-.524-1.126-1-1.7-1.811-1.965A19.152,19.152,0,0,0,800.588,193.736Zm101.834-22.265-1.344-.751c.4.783.8.956,1.369.711a4.2,4.2,0,0,1-.807,2.087c.638.044.792-.467.959-.773A.906.906,0,0,0,902.423,171.471Zm-152.574,54.3-.76.272.237.753c-.668.2-.668.2-.7.677.365-.043.733-.078,1.1-.133.591-.089.79-.492.494-1a6.3,6.3,0,0,0-.408-.579l.219-.835-.5.157Zm35.251-58.9c-.048-.285,0-.659-.166-.834a1.208,1.208,0,0,1-.321-1.022,1.723,1.723,0,0,0-.095-.591c-.022-.077-.134-.127-.27-.247-.03.282-.052.491-.075.709l-.805-.283a7.178,7.178,0,0,0,1.76,2.278c-.071.09-.221.216-.2.264.243.535.509,1.062,1.2,1.116-.028-.469-.049-.939-.091-1.407-.007-.071-.112-.134-.231-.266-.048.255-.084.444-.126.67Zm12.584,5.423L799,174.815c.113-.288.2-.4.172-.454-.325-.631-.651-1.264-1.02-1.869-.068-.111-.329-.1-.5-.153a7.044,7.044,0,0,0-.772-2.947,32.491,32.491,0,0,0-1.818-4.007,3.207,3.207,0,0,0-.364-.5,4.892,4.892,0,0,0,.374,1.632c.767,1.788,1.565,3.564,2.355,5.342A4.051,4.051,0,0,0,797.683,172.3Zm46.344-12.27c-.594.079-.495.565-.527.944-.117,1.4-.215,2.793-.31,4.19a1.011,1.011,0,0,0,.1.338c.437-.042.488-.271.494-.585.027-1.564.619-3.1.206-4.689a.545.545,0,0,1,.035-.2l-.08-1.519C843.319,159.1,843.839,159.54,844.027,160.027Zm-90.16,62.753c-.122.06-.314.092-.353.186a13.184,13.184,0,0,0-.453,1.328.779.779,0,0,0,.054.388c.089.31.191.616.292.934.835.025,1.071-.514,1.281-1.027l-.494-.394c.312-.537.915.412,1.111-.321-.591-.25-1.227-.4-1.45-1.106-.024-.364.807-.526.2-1.07C753.855,222.057,753.567,222.353,753.867,222.78Zm84.684-67.956.033.015-.912-1,.465-.436-.863-.931c-.038.232.093.4.071.537A14.565,14.565,0,0,0,837.16,156c.011.221-.359.678-.445.653-.617-.18-.977.807-1.623.332-.019-.014-.133.054-.161.106-.245.449-.527.1-.8.05-.051-.009-.114.053-.214.1l.223.708a6.06,6.06,0,0,1,2.822-.032c.056,1.214.116,2.369.16,3.525.016.4-.057.817,0,1.213.094.671.286,1.328.384,2s.113,1.368.2,2.048c.038.29-.008.736.6.622a20.5,20.5,0,0,0-.148-2.172c-.122-.714-.068-1.274.845-1.535-.952-.221-.982-.219-1.053-1.069-.051-.611.192-1.328-.051-1.822-.447-.91-.169-1.828-.32-2.727a3.073,3.073,0,0,1,.135-.857,5.039,5.039,0,0,1,1.121.614,1.559,1.559,0,0,1,.51.962c0,.945-.132,1.889-.229,3.03a1.822,1.822,0,0,1,.342,1.539,5.418,5.418,0,0,0,.241,2.89,3.484,3.484,0,0,0,.405.723c.125-.442.3-.712.239-.905a17.309,17.309,0,0,1-.284-3.44c-.06-.5-.143-1-.16-1.5-.04-1.172.022-2.352-.095-3.515-.062-.62.041-.966.862-1.117-1.273-.54-.821-1.538-.859-2.554Zm57.584,19.609.22.1c.115-.144.36-.348.326-.423-.348-.754-.063-1.527-.04-2.439-.729.391-1.073-.805-1.8-.259.028.281.148.579.052.76-.123.232-.422.37-.667.566l.617.478c-.287.249-.516.472-.771.661-.184.137-.457.182-.594.347-.517.62-1.368.924-1.657,1.766a.723.723,0,0,1-.368.352,2.231,2.231,0,0,0-1.071,1.206,1.966,1.966,0,0,1-.627.8,3.466,3.466,0,0,1-1.032.273c.424.381.768.849,1.447.428a1.183,1.183,0,0,1,.772-1.2c.259-.121.4-.463.649-.638.5-.358.765-1.129,1.555-.883.359-.389.139-1.061.933-1.388a14.409,14.409,0,0,0-.386,1.407,2.764,2.764,0,0,0-.033,1.185,3.552,3.552,0,0,1,.04,2.291,1.373,1.373,0,0,0,.544,1.563,5.724,5.724,0,0,1-.119-.849,2.241,2.241,0,0,1,.131-.9c.235-.5.556-.968.831-1.431.119.038.32.161.38.112.837-.683.817-.683.421-1.853a5.856,5.856,0,0,1-.12-2.651c.01-.081.239-.134.462-.25Zm-15.428-6.323c-.138.428-.24.745-.343,1.061-.568,1.742-1.771,3.126-2.676,4.675a7.451,7.451,0,0,0-1.408,3.242c-.068.987-.286,1.964-.4,2.949-.062.529-.049,1.067-.072,1.672a2.138,2.138,0,0,0,1.361-1.058,1.73,1.73,0,0,1-.087-1.872.97.97,0,0,0,.109-.864c-.53-1.32.11-2.444.712-3.495.643-1.122,1.5-2.119,2.243-3.187a4.615,4.615,0,0,0,.371-.836c.04-.093.074-.188.093-.238l.948-.13c-.245-.572-.708-.954-.4-1.517C881.175,168.48,880.911,168.291,880.708,168.112Zm-40.421-17.588a1.106,1.106,0,0,0,.537,1.253,1.634,1.634,0,0,1,.574,1.638q-.087,1.283-.214,2.563a9.341,9.341,0,0,0-.177,1.1c.027,1.177.08,2.355.173,3.529.032.4.27.778.317,1.178.115.99.147,1.99.267,2.979a2.7,2.7,0,0,0,.559,1.758c.079-.225.167-.348.155-.46-.161-1.467-.308-2.936-.514-4.4a20.422,20.422,0,0,1-.1-4.711,6.644,6.644,0,0,0,.11-2.052,10.88,10.88,0,0,1,.107-3.344,1.544,1.544,0,0,0-.361-1.1l-.42.909Zm9.131-.425c-.258.26-.346.307-.347.357a24.273,24.273,0,0,0-.193,3.993,2.852,2.852,0,0,1-.329,2.374.246.246,0,0,0-.062.191c.327.786-.025,1.573-.022,2.357,0,.846-.3,1.687-.355,2.538-.083,1.273-.07,2.552-.087,3.829,0,.107.083.216.176.44a4.1,4.1,0,0,0,.33-1.783,28.053,28.053,0,0,0,.409-4.511,10.585,10.585,0,0,1,.274-1.409,10.76,10.76,0,0,0,.292-2.635,11.588,11.588,0,0,1-.051-1.383C849.473,153.073,849.436,151.688,849.418,150.1Zm-3.648.039-.229.021c-.071.529-.174,1.057-.207,1.588-.056.916-.083,1.835-.094,2.753-.009.781.012,1.563.04,2.344.019.506.084,1.009.112,1.515.034.6-.332,1.224.143,1.8.055.066-.005.267-.065.377-.137.256-.133.429.147.6a.509.509,0,0,1,.189.418,9.215,9.215,0,0,0,.615,3.98,1.631,1.631,0,0,0,.215.362l.2-.06c-.066-.563-.118-1.127-.2-1.687-.076-.5-.2-.995-.28-1.5s-.13-1.019-.187-1.529q-.194-1.737-.38-3.476a.469.469,0,0,1,.012-.2c.433-1.169.057-2.377.166-3.566a27.041,27.041,0,0,0-.021-3.167A2.231,2.231,0,0,0,845.771,150.138Zm34.439,27.334a7.28,7.28,0,0,0,.677-.3,5.13,5.13,0,0,0,1.977-1.431,10.356,10.356,0,0,1,2.293-1.865,2.41,2.41,0,0,0,.677-.744A4.54,4.54,0,0,1,887.1,171.6c.765-.622.779-1.048.046-1.855a10.726,10.726,0,0,0-1.767,2.607c-.5,1.061-1.042,2.169-2.463,2.283a.541.541,0,0,0-.264.141c-.73.6-1.469,1.188-2.171,1.819C880.337,176.721,880.342,177.016,880.209,177.472Zm-25.873-23.566c-.015.967-.515,1.91-.115,2.888a.834.834,0,0,1-.027.5c-.441,1.515-.225,3.119-.632,4.639-.024.091.038.2.044.3.04.578.072,1.157.113,1.735.023.329.06.657.091.986a4.291,4.291,0,0,0,.8-2.89c-.28-1.579.127-3.09.064-4.629A9.771,9.771,0,0,0,854.336,153.907Zm-32.936,10.2c.653.4,1.35.735,1.555,1.655a15.72,15.72,0,0,0,.822,2.445,6.2,6.2,0,0,1,.768,2.186c.006.3.255.444.665.37-.073-1.314-.916-2.355-1.164-3.576s-.936-2.311-1.086-3.294a6.475,6.475,0,0,1-1.156-.786c-.3-.331-.305-.884-.84-1.263Zm11.552,7.745.141-.072c.031-.813.059-1.627.1-2.44a2.416,2.416,0,0,0,.062-.716c-.428-1.438.035-3.009-.69-4.413-.148-.286.012-.732.037-1.1.016-.233.132-.5.055-.69-.2-.495-.482-.957-.782-1.529-.343.663-.651,1.153-.144,1.836a3.309,3.309,0,0,1,.44,1.472,12.038,12.038,0,0,0,.331,2.679,7.535,7.535,0,0,1,.1,1.839C832.69,169.767,832.83,170.811,832.952,171.857ZM807.4,181.9a3.7,3.7,0,0,0,1.123,1.995,7.3,7.3,0,0,1,1.634,2.594,17.642,17.642,0,0,1,.811,2.231,3.024,3.024,0,0,0,1.14,1.488l-.378-1.2c.155-.049.253-.115.337-.1.28.051.6.138.648-.252.018-.167-.175-.4-.329-.537a14.449,14.449,0,0,1-3.226-4.163,13.364,13.364,0,0,0-1.064-1.642C807.979,182.159,807.734,182.095,807.4,181.9Zm3.625-20.388-1.365.01c-.114.527.165,1.174-.605,1.36-.138.033-.265.318-.306.507a1.3,1.3,0,0,1-.848.924c.188,1.051.188,1.051.605,1.542-.089-.845-.044-1.587.882-1.894l.282.717.713-.067.982-1.883-1.061-.137ZM771.1,213.074l.176-.129a2.142,2.142,0,0,0-.142-.694,2.642,2.642,0,0,0-2.439-1.01,2.318,2.318,0,0,1-2.151-.224c-.11-.085-.323-.033-.487-.051a6.065,6.065,0,0,1-3.236-.791,2.111,2.111,0,0,0-1.582-.375,5.393,5.393,0,0,0,1.385.742c.963.343,1.735,1.283,2.923.948.066-.019.2.078.252.154.232.324.528.187.837.178C768.239,211.774,769.886,211.6,771.1,213.074Zm79.716-46.694a10.125,10.125,0,0,0,1.256-4.651,34.825,34.825,0,0,0-.32-4.759,8.018,8.018,0,0,0-.562,2.179,1.019,1.019,0,0,0,.1.5,1.529,1.529,0,0,1-.578,1.906c.7.542.73.545.674,1.378a4.226,4.226,0,0,1-.329,1.257A2.617,2.617,0,0,0,850.818,166.381ZM799.6,185.389c.006.364-.019.449.012.494.782,1.123,1.586,2.231,2.35,3.367a7.781,7.781,0,0,1,.943,1.7,8.676,8.676,0,0,0,1.263,1.87c-.031-.924-.054-1.614-.076-2.242-.39-.31-.853-.5-1.006-.833-.511-1.109-1.628-1.73-2.142-2.844A7.576,7.576,0,0,0,799.6,185.389Zm-11.59-11.934a3.082,3.082,0,0,1-.265-.908.931.931,0,0,1,.347-.675c.132-.073.5.111.652.278.253.272.389.651.635.933a4.048,4.048,0,0,0,.779.531l-.2-1.792a1.078,1.078,0,0,1-1.259-.595,6.587,6.587,0,0,0-.816-1.054c-.28-.3-.612-.561-.921-.838l-.194.175,1.115,1.756c-.662.193-.829.535-.565,1.015C787.512,172.629,787.724,172.967,788.013,173.455Zm44.526,10.636c.185-1.143.822-2.07.075-3.076-.047-.064.012-.2,0-.3q-.189-1.6-.386-3.206c-.208.148-.3.3-.294.451.079,1.2.163,2.4.278,3.593a2.255,2.255,0,0,1-.17,1.595C831.787,183.536,832.028,183.771,832.539,184.091Zm37.76-6.424c.405-.61.783-1.241,1.224-1.824s1.213-.92,1.582-1.664c-1.11-.292-1.433-.112-1.706.8-.064.213-.177.5-.347.578C870.086,175.98,870.213,176.811,870.3,177.667Zm-75.334,10.841,1.891,2.983.281-.834,1.312.777A8.119,8.119,0,0,0,794.966,188.508ZM766.52,222.972c-.02-.245-.117-.487-.041-.646.418-.876-.224-1.482-.525-2.168-.044-.1-.282-.167-.422-.154-.092.008-.205.176-.241.293a.766.766,0,0,0,.023.4,5.779,5.779,0,0,1,.2,2.817Zm39.9-47.779a2.067,2.067,0,0,0-.269-1.46,2.89,2.89,0,0,1-.649-2.3c.031-.113-.052-.261-.09-.39-.183-.62-.377-1.236-.55-1.859a1.421,1.421,0,0,0-.574-1c.124,2.442,1.221,4.451,1.716,6.613C806.03,174.923,806.22,175.012,806.418,175.194Zm97.27,2.173c.159-1.3-.906-1.622-1.568-2.3l-.789,1.89c.494.27.507-.855,1.1-.329l-.331.493C902.953,177.593,902.953,177.593,903.688,177.367ZM861.44,164.108l.247-.013c.066-.991.118-1.982.2-2.971.041-.474.165-.941.218-1.415.033-.294-.07-.533-.5-.555a7.951,7.951,0,0,0-.517,1.973A23.042,23.042,0,0,0,861.44,164.108ZM803.613,176.22l.294-.145a3.324,3.324,0,0,0-.231-.708c-.72-1.211-1.674-2.3-1.838-3.789-.043-.4-.325-.336-.6-.131.415,1.147.763,2.294,1.252,3.377A7.01,7.01,0,0,0,803.613,176.22Zm25.189,9.4a33.345,33.345,0,0,0-1.615-6.668C827.031,179.872,827.971,183.738,828.8,185.615ZM783.951,201.42a15.439,15.439,0,0,0-1.828-.3c-.609-.028-.979-.785-1.756-.515l3.131,2.214Zm57.989-26.7-.222.009a1.858,1.858,0,0,0-.044.366c.069.944.146,1.887.224,2.831.028.341.054.682.1,1.02.012.085.106.159.194.283l.732-.409Zm-38.465,10.746-.178.133a7.706,7.706,0,0,0,.358.746c.481.784,1.009,1.542,1.461,2.343a3.3,3.3,0,0,0,1.281,1.161,16.091,16.091,0,0,1-1.152-2,12.07,12.07,0,0,0-1.378-2.144C803.8,185.586,803.608,185.543,803.474,185.467Zm-20.8,8.754c.349.9,1.226,1.07,1.282,1.849,0,.063.153.144.247.169.611.164,1.225.316,1.839.472a16.529,16.529,0,0,0-2.463-2.031A8.011,8.011,0,0,0,782.67,194.221ZM836.62,179.98c-.592,1.588-.2,3.138.067,4.926A12.345,12.345,0,0,0,836.62,179.98Zm8.4-3.662-.123.009c.164,1.545.321,3.09.505,4.633.014.121.218.218.344.336.119-.107.265-.187.255-.237C845.685,179.476,845.353,177.9,845.022,176.317Zm-36.684-15.9-1.087.485,1.248.792c-.283.639-1.165.472-1.269,1.311a2.435,2.435,0,0,0,.512-.092c.015-.435.322-.47.637-.519.287-.044.571-.1,1.023-.188Zm10.888,32.921c.478.107.567-.17.367-.511-.667-1.135-.514-2.667-1.72-3.54-.1-.07-.1-.26-.173-.37a6.534,6.534,0,0,0-.509-.54C817.77,190.238,819.05,191.544,819.227,193.337Zm89.6-17.089.03-.251c-.2-.014-.392-.02-.587-.044-.179-.022-.505-.048-.51-.1-.075-.766-.938-.654-1.231-1.385-.053.329-.107.488-.078.505.462.267.422.694.426,1.14.005.6.387.851.94.628C908.162,176.606,908.488,176.416,908.824,176.248ZM786.5,196.8a5.785,5.785,0,0,0,2.69,1.832,2.557,2.557,0,0,0,.732-.07C788.97,197.489,787.748,197.342,786.5,196.8Zm49.008-44.274-.751-1.2c-1.084.328-.3,1.288-.68,1.8l.982.351ZM806.7,168.269l-.749.632.873.089c.211-.684.393-1.29.584-1.893a2.657,2.657,0,0,0,.024-1.635c-.3.437-.615.6-.583,1.115a1,1,0,0,1-.725,1.093c-.04.011-.062.092-.092.141Zm-5.812,1.822c-.209-1.1-.378-1.979-.576-3.021l-.944-.8A9.7,9.7,0,0,0,800.884,170.091Zm-27.4,37.322c-.343,0-.712-.036-1.077-.007-.329.026-.651.159-.978.172s-.656-.233-1.071,0l2.7.984C773.314,208.263,773.809,208.077,773.483,207.413Zm35.727-39.257c-.18.164-.322.249-.31.288a31.707,31.707,0,0,0,1.32,4.537l.236-.068Zm26.1-.162.207.03c.084-.167.251-.34.239-.5-.056-.748-.145-1.495-.257-2.237a1.721,1.721,0,0,0-.588-1.3A18.033,18.033,0,0,0,835.311,167.995Zm18.108,3.283c-.094,1.08-.755,2.015-.716,3.1a4.6,4.6,0,0,0,1.084-1.361A1.662,1.662,0,0,0,853.419,171.278Zm-28.132-14.043c.806.085.345,1.066.963,1.241l1.146-.167-.919-1.449Zm9.762,6.376c.325-1.243.129-2.808-.338-3.191C834.7,161.439,834.109,162.513,835.049,163.61Zm-63.326,40.166c.491.184.9.335,1.3.488.443.168.882.351,1.33.506.359.124.616.66,1.144.327A4.924,4.924,0,0,0,771.722,203.777Zm-2.076,3.5c-1.3-.536-2.529-.276-3.939-.221.3.2.447.375.608.388.985.079,1.972.13,2.96.162C769.377,207.61,769.485,207.427,769.647,207.277Zm9.081-.95-.384-.98-1.771-.242A2.237,2.237,0,0,0,778.728,206.328Zm76.363-27.255.269.05a2.416,2.416,0,0,0,.216-.846,3.436,3.436,0,0,1,.239-1.712,5.845,5.845,0,0,0,.192-1.222l-.244-.034C855.4,176.537,854.82,177.724,855.091,179.073Zm-14.322,5.453.235-.074-1.629-5.171c-.137,1.307.55,2.442.756,3.681A7.4,7.4,0,0,0,840.769,184.526Zm-54.46-11.359c.119-.3.272-.5.224-.6q-.631-1.4-1.333-2.761c-.072-.14-.284-.208-.6-.424.072.457.019.828.168.949C785.627,171.019,785.8,172.077,786.309,173.167Zm-24.455,46.984c-.746-.844-1.213.225-1.789.125l-.466-.724-.162.056c-.022.28-.043.56-.075.98.718.007,1.353.018,1.988.016a.43.43,0,0,0,.276-.1A1.861,1.861,0,0,0,761.854,220.151Zm121.344-59.1.233-1.955-.46.145-.657-.757-.22.152.8,1.45C882.429,160.438,882.429,160.438,883.2,161.047Zm-31.89-4.809c.754-.985.172-1.832.231-2.861A2.9,2.9,0,0,0,851.308,156.238Zm36.781,14.01.893.408a6.664,6.664,0,0,0,.461-.722,3.179,3.179,0,0,0,.158-.62c-.284,0-.647-.108-.833.027A3.736,3.736,0,0,0,888.089,170.248Zm-99.645,6.283a1.522,1.522,0,0,0-.568-1.663c-.432-.334-.431-1.092-1.28-1.214Zm57.437-30.91a6.377,6.377,0,0,0-.413,2.848c.01.121.235.223.509.465C845.809,147.777,846.31,146.823,845.881,145.622Zm32.426,33.3c.812-.471,1.516-.871,1.76-1.839C878.863,177.48,878.287,178.064,878.307,178.924Zm-61.492,9.056a3.253,3.253,0,0,0-1.294-2.8ZM857.1,160.263c.6-.462.274-1.005.295-1.486s.236-.985-.214-1.447A5.8,5.8,0,0,0,857.1,160.263ZM776.055,189.1a5.176,5.176,0,0,0,2.255,1.949A4.26,4.26,0,0,0,776.055,189.1ZM830.6,169.34l.19-.05a22.049,22.049,0,0,0-.341-2.373c-.12-.486-.478-.37-.763-.048.183.43.37.83.523,1.244S830.471,168.93,830.6,169.34Zm-56.2,28.811a2.32,2.32,0,0,0,2.424,1.172C776.137,198.491,775.109,198.648,774.4,198.151Zm90.067-37.18-.227-.1c-.116.148-.345.31-.329.441a6.376,6.376,0,0,0,.336,2.175A4.713,4.713,0,0,0,864.467,160.971ZM783.3,175.021a5.653,5.653,0,0,0-1.862-2.9C782.122,173.077,782.289,174.161,783.3,175.021Zm7.993,19.64-.18.207c.383.329.759.667,1.151.986s.64.886,1.4.814C793.018,195.7,791.966,195.419,791.294,194.661Zm-40.83,31.476c1.059-.9,1.046-1.671.123-2.037C750.55,224.718,750.512,225.34,750.464,226.137Zm88.466-48.831c.007-.756.4-1.569-.222-2.366C838.06,175.837,838.816,176.544,838.93,177.306Zm67.647-1.144-1.323-1.721C904.813,175.386,905.156,175.884,906.577,176.162Zm-26.9-20.415c-.06.666.5,1.308.05,1.994l.579.6C880.3,156.046,880.3,156.046,879.676,155.747Zm-114,59.142a1.815,1.815,0,0,0,1.559.616C767.022,214.67,766.705,214.548,765.675,214.889Zm127.854-36.411-.161-.213-1.069.256.356,1.129C893.581,179.665,893.118,178.783,893.528,178.478Zm-46.936-4.993.231-.044q-.094-1.41-.187-2.82A3.715,3.715,0,0,0,846.592,173.485Zm18.122-15.617a2.7,2.7,0,0,0-.182,2.324A2.747,2.747,0,0,0,864.714,157.868Zm12.031,12.173a2.482,2.482,0,0,0-1.383,1.794A3.041,3.041,0,0,0,876.745,170.041Zm-31.517,3.166a1.87,1.87,0,0,0-.191,2.314C845.1,174.668,845.467,174,845.228,173.207Zm-57.582-6.751c-.627.893-.442,1.232.751,1.532Zm69.712-3.1a1.917,1.917,0,0,0-.1-2.12C856.692,162.032,857.285,162.682,857.358,163.355Zm-73.071,10.132.247-.154c-.47-.754-.6-1.711-1.493-2.215Zm65.9.224.225-.024c-.011-.948-.021-1.9-.036-2.845,0-.021-.049-.051-.08-.06s-.053.014-.218.066C850.118,171.778,850.154,172.744,850.191,173.71ZM839.4,148.031l-.235.068c.329.6-.282,1.288.362,1.9l.448-.393c-.543-.574-.543-.574-.021-1.013Zm26.857,17.544a3.324,3.324,0,0,0,.281-2.235C866.118,164.2,865.874,164.831,866.258,165.574Zm15.115.954.328.13a2.027,2.027,0,0,0,.316-1.913Zm-46.33-7.644-.569-.47-.843.765c.3.114.6.23.907.341.024.009.063-.022.113-.042.043-.075.09-.165.146-.249C834.87,159.119,834.951,159.012,835.042,158.884Zm-.19,19.527c-.063,1.184-.063,1.184,1.149,1.75Zm57.159-10.031c.845-.35.918-.6.556-1.352C891.816,167.219,892.177,167.813,892.011,168.38Zm-11.583,12.79c.514-.5.859-.1,1.342.278,0-.437.006-.707.008-1C880.514,180.665,880.514,180.665,880.428,181.17Zm-26.981-35.328-.243.035c.089.694-.576,1.392.047,2.246Zm-64.925,46.275a4.382,4.382,0,0,0,1.545,1.577A1.993,1.993,0,0,0,788.522,192.117Zm-7.555-5.4c-.322.732.235,1.334,1.322,1.42Zm108.073-6.643-.124-.233-1.383.862.557.455Zm-91.863-14.034-.157.065.513,1.629.159-.06Zm33.243-4.142c.329.1.643.049.622-.287a.666.666,0,0,0-.768-.7,1.13,1.13,0,0,0-.051.344C830.274,161.477,830.354,161.692,830.419,161.9Zm-24.158-.184.629.079c.155-.857.155-.857-.291-1.151Zm-1.618-3.586a.739.739,0,0,1-.271.981c-.023.015.011.117.017.163l.679.085C805.213,158.87,805.286,158.4,804.643,158.129Zm-11.949,5.054a2.352,2.352,0,0,0-.949-1.707C791.742,162.215,792.219,162.638,792.694,163.183Zm-16.686,51.928c-1.155-.3-1.276-.206-1.137.786Zm95.078-49.033a2.756,2.756,0,0,0,.449-1.9A1.793,1.793,0,0,0,871.085,166.079Zm18.6,6.423.173.113a5.588,5.588,0,0,0,.651-1.106c.149-.465-.159-.5-.468-.383Zm-42.514-20.028c.444-1.591.444-1.591-.073-1.916C847.122,151.235,847.145,151.854,847.169,152.473Zm37.057,16.4a8.872,8.872,0,0,0-.58.846.371.371,0,0,0,.1.351.384.384,0,0,0,.372,0A.833.833,0,0,0,884.226,168.876Zm-12.52-5.378c.595-.47.663-.875.393-1.75Zm-25.074,6.087a2.021,2.021,0,0,0,.011-1.8A2.287,2.287,0,0,0,846.632,169.585Zm-73.848,23.029-.132.2c.411.3.646.923,1.579.713Zm124.844-16.119c-.926.54-.2.967.056,1.407C897.667,177.455,897.65,177.008,897.629,176.495ZM763,220.348c.206.308.464.539.828.308.134-.085.148-.36.244-.621C763.585,220.038,763.18,219.789,763,220.348Zm41.55-37.992-.273.133.847,1.527.2-.109Zm16.77-12.578c.068-.357.224-.679.132-.784-.325-.374-.643-.086-1.075.144Zm-20.1,6.638c.2-.676.2-.676-.425-1.348Zm46.067-29.347a2.2,2.2,0,0,0,.137,1.63C847.24,148.2,848.056,147.679,847.279,147.069ZM824.873,161.4c-.3.676.08.942.547,1.277C825.662,162.049,825.422,161.718,824.873,161.4Zm1.215,2.234c-.007.921-.007.921.719,1.118C826.894,164.178,826.519,163.928,826.088,163.637Zm-33.957,13.229.288-.235-.914-1.177-.234.172Zm63.939-3.3.3.062c.243-.379.621-.743-.056-1.4ZM807.5,159.278c-.42.781-.42.781.376,1.022Zm-39.443,21.543c-.368.7-.368.7.289.917ZM891.392,170l.7-1.207C891.209,169.193,891.116,169.34,891.392,170Zm-42.277-21.8c.316-.395.584-.795.084-1.28Q849.158,147.553,849.116,148.192Zm-68.854,47.663c.221.774.221.774.942.458C781.077,195.852,780.734,195.848,780.261,195.856Zm-12.339,24.66c-.02-.536-.031-.841-.045-1.212C767.2,219.782,767.2,219.782,767.923,220.516Zm1.934-35.424c.709-.609.7-.657-.183-1.1ZM882.58,156.977c-.335.636.1.876.322,1.312C883.269,157.71,883.036,157.4,882.58,156.977Zm-5.823-2.817c.718-.742.71-.8-.068-1.2C876.711,153.327,876.728,153.628,876.758,154.159ZM769.215,183.542c.075-.52.121-.857-.283-1.167C768.57,182.813,768.606,183.121,769.215,183.542Zm60.423-17.49.2-.073c-.029-.942-.12-1.142-.675-1.443Zm33.006-8.559-.324-.065-.211,1.1C862.773,158.185,862.76,157.854,862.643,157.493Zm-91.077,39.138c-.344-.861-.344-.861-1.282-.9Zm118.517-31.65c.276-.2.51-.273.556-.411.136-.412-.192-.567-.5-.8C890.124,164.159,890.109,164.455,890.083,164.981Zm4.391,3.779c0-.318.007-.556.01-.863l-1.076.615Zm1.956,6.194c-.413.671-.413.671.205,1.213Zm-37-17.468c.058-.362.094-.581.135-.831l-1.079-.118Zm23.67,25.532c.448-.169.685-.372.465-.78a.365.365,0,0,0-.322-.142C882.833,182.3,882.961,182.618,883.1,183.018Zm-89.791-19.682-.286.124c.11.328.006.765.617.927Zm-22.356,22.241.321.015c.069-.2.221-.416.183-.592s-.275-.281-.424-.419l-.214.109Zm125.291-5.924c-.548-.427-.548-.427-.923.291ZM763,206.6c-.333.178-.357-.871-1.237-.5Zm-20.021,22.664c-.131.43-.277.7.127.806.087.022.232-.186.35-.288ZM785.3,174.874l.285-.248-.669-.7-.183.158Zm-6.028,10.016-.222.181.813,1.014.2-.151Zm111.9-3.251c-.2-.225-.311-.44-.4-.431-.292.028-.6.112-.526.639Zm-116.7,19.656c.174-.638.143-.913-.28-.931-.1,0-.2.145-.306.223Zm61.823-38.208c.249-.7.215-.741-.587-.889Zm52.266,3.143-.231,0c-.086.312-.5.644.183,1.047Zm-65.948.662c-.495.516-.495.516.172.848C822.71,167.386,822.66,167.139,822.61,166.892Zm-16.273-6.8.5-.567-.675-.429-.149.144Zm54.907-12.831-.182.3.5.292c.051-.115.17-.31.143-.333A2.459,2.459,0,0,0,861.244,147.256Zm-83.82,40.134.543.553C778.066,187.481,777.916,187.266,777.424,187.39Zm56.929-36.705c-.6.309-.6.309-.461.759C834.217,151.3,834.474,151.121,834.353,150.685Zm5.267,2.827-.4-1.26A.9.9,0,0,0,839.62,153.512Zm-.343,35.526-.79-.588C838.531,188.95,838.734,189.231,839.277,189.038Zm61.568-14.707c.18.582.418.819,1.135.477Zm-72.169,16.085c.313.318.362.72.856.619C829.5,190.553,829.352,190.3,828.676,190.416Zm18.773-36.568c-.541.394-.541.394-.134.893C847.369,154.383,847.408,154.116,847.448,153.849Zm16.018,17.823.214.182c.442-.086.505-.39.407-1.01Zm-72.339-11.528-.246.1a1.139,1.139,0,0,0,.618,1.077Zm83.226,6.59c-.026-.285-.047-.53-.076-.857C873.836,166.5,873.836,166.5,874.353,166.734Zm13.555,10.611c.4.625.4.625.872.435Zm-49.427-6.606-.3.038q.087.5.175,1l.1,0Q838.467,171.254,838.481,170.738Zm28.083-9.023.265.055a.869.869,0,0,0-.087-1.1Zm-19.248-5.111c.264-.425.094-.675-.345-1.056C847.04,156.012,846.818,156.348,847.316,156.605Zm-21.957,36.42-.288.044a.572.572,0,0,0,.34.8Q825.385,193.446,825.359,193.025ZM874.216,173.2c-.525-.146-.681.089-.71.671Zm-39.234-16.75c.668-.546.668-.546.218-.982Zm-59.52,37.931.9.554C776.288,194.518,776.163,194.187,775.462,194.377Zm139.7-19.32c-.221-.087-.4-.223-.489-.177a.438.438,0,0,0-.173.4.445.445,0,0,0,.386.195C914.974,175.457,915.039,175.246,915.157,175.057Zm-57.63-18.627c-.049-.4-.068-.614-.112-.82,0-.017-.216-.037-.258.009C856.921,155.884,857.023,156.1,857.527,156.429Zm-.84,13.872c.525-.4.676-.661.215-1.179Zm-77.35,30.12.1-.291c-.233-.157-.44-.44-.959,0Zm41.145-32.777-.224-.918C819.889,167.1,819.861,167.329,820.482,167.645Zm-66.627,51.6-.875-.019C753.375,219.845,753.615,219.563,753.855,219.245Zm45.463-47.793-.352-.025c.018.182.027.366.061.545.006.03.12.039.184.058Zm29.1-9.669c-.055.321-.227.632.253.79C828.977,162.175,828.823,161.964,828.415,161.783Zm71.537,10.658.829-.336C900.183,171.83,900.029,172.049,899.952,172.441Zm-9.349,2.865-.3-.162c-.083.183-.169.365-.238.553a.9.9,0,0,0,.236.108C890.418,175.647,890.508,175.475,890.6,175.306Zm-59.9-17.381-.169.421.412.16c.039-.114.135-.25.1-.337S830.854,158.026,830.7,157.924Zm-56.1,25.281-.4-.963C773.942,182.778,774.209,182.917,774.6,183.206Zm49.382-23.3c.076-.534-.068-.719-.5-.566-.05.018-.086.074-.159.14Zm-47.724,13.106.277-.089-.492-.763-.115.058Zm28.64-11.162-.223.99C805.159,162.549,805.333,162.326,804.9,161.849Zm99.577,10.336c-.279.484-.012.587.407.585Zm-110.317-8.138c.12.021.156.037.184.028s.033-.053.027-.077c-.047-.188-.094-.376-.157-.559-.008-.022-.108-.012-.254-.025Zm41.8-5.567-.04.358c.188-.009.377-.012.562-.036.021,0,.044-.174.038-.175C836.338,158.572,836.15,158.527,835.963,158.481Zm-32.872.884-.206.86C803.466,160.046,803.387,159.806,803.09,159.365ZM899.406,175.7l.124.17c.227-.091.685.106.529-.589ZM755.412,221.81a2.8,2.8,0,0,0,.136.425c.2-.023.4-.073.6-.115,0-.056,0-.112,0-.167Zm5.672,1.726-.292.016c.034.16.064.321.11.477a.46.46,0,0,0,.175-.02C761.089,223.852,761.084,223.694,761.084,223.536Zm24.51-40.413-.169.03c-.014.088-.062.189-.034.259a1.233,1.233,0,0,0,.223.325c.037.043.108.056.206.1Zm94.839.378-.329.035a5.578,5.578,0,0,0,.123.55.847.847,0,0,0,.252-.028C880.476,183.872,880.453,183.686,880.433,183.5ZM787.41,180.27l-.191.135.407.562.176-.124Zm12.769-5.947.282-.062c.12-.28-.033-.5-.448-.666Zm-32.514,9.36-.331.108c.091.159.176.321.279.471.013.019.171-.035.17-.038C767.75,184.042,767.707,183.862,767.665,183.682Zm119.12-22.8-.191-.04-.143.481.271.057Q886.754,161.13,886.785,160.88Zm-92.138,1.351-.23.121.321.473.135-.076Zm8.06,7.8-.264-.038q-.005.335-.011.67l.227.011Q802.683,170.355,802.707,170.034ZM752.64,223.945l-.222-.182c-.115.01-.264-.02-.337.041s-.087.216-.126.329a.9.9,0,0,0,.352.044A1.288,1.288,0,0,0,752.64,223.945ZM805.694,160.5l-.308-.088-.111.6.206.054Zm-44.135,35.547-.189.235.556.424.142-.158Zm-11.387,19.665c.3.565.538.331.758.213.026-.014.013-.1.023-.214ZM779.9,178.477l.15-.171-.52-.728-.178.13Zm17.436,5.318-.339.121.349.638.263-.128ZM830.5,155l.1.15.452-.209-.189-.29Zm-24.747,8.144-.227.818C806.038,163.755,806.075,163.55,805.748,163.144Zm52-10.864.577-.589C857.707,151.49,857.718,151.8,857.749,152.28ZM798.094,160.1l-.288,0q.023.289.046.577l.213-.009Q798.08,160.385,798.094,160.1ZM768.552,185.3l-.229.11c.08.148.156.3.25.438a2.087,2.087,0,0,0,.229-.119Zm65.885-20.187c.016-.184.072-.329.022-.4a.349.349,0,0,0-.31-.122c-.082.038-.174.246-.139.3C834.068,164.985,834.226,165.012,834.437,165.11Zm69.884,10.162c-.213-.124-.315-.23-.411-.225s-.194.118-.29.184c.088.084.165.216.266.237S904.091,175.383,904.322,175.272ZM771.39,179l.2-.088-.294-.652-.185.082Zm26.81-10.175-.2.115.3.431.153-.1Zm-2.558,9.044c-.075.155-.17.276-.144.312a2.329,2.329,0,0,0,.333.328c.062-.1.2-.235.172-.285A1.737,1.737,0,0,0,795.641,177.868Zm.985-12.57.131-.1-.275-.489-.2.126ZM749.943,221.78c.01.235.019.47.035.855C750.291,222.263,750.516,222.045,749.943,221.78Zm76.783-67.65c.21.047.349.125.432.085a.394.394,0,0,0,.189-.3c0-.066-.219-.207-.266-.181C826.963,153.8,826.885,153.942,826.726,154.13Zm-37.053,29.258.148-.185-.5-.465-.138.14Zm15.171-16.064c-.344-.073-.472-.14-.527-.1-.089.062-.191.2-.175.29a.328.328,0,0,0,.267.19C804.524,167.674,804.611,167.537,804.844,167.324Zm26.428-15.041-.232-.048c-.03.186-.062.371-.082.558a.839.839,0,0,0,.169.034C831.182,152.648,831.226,152.465,831.272,152.283Zm20.061-6.641.21.087c.029-.173.061-.346.079-.52,0-.014-.1-.038-.156-.057Zm-78.964,34.43-.161.088.2.357a.926.926,0,0,0,.137-.086C772.5,180.308,772.431,180.191,772.369,180.072Zm49.875-14.427-.135.227.52.25.087-.157Zm-33.024,5.242.16-.025-.233-.741-.152.05Zm38.672-6.587-.18.005q.005.287.011.574l.191,0Q827.9,164.587,827.892,164.3Zm-27.115-.469H800.5q.019.286.038.572h.187Q800.753,164.118,800.777,163.831Zm-7.475-1.179.207-.09-.175-.422c-.073.044-.214.11-.208.13A2.637,2.637,0,0,0,793.3,162.652ZM878.461,180.3c.387-.371.387-.371.173-.742C878.577,179.81,878.53,180.014,878.461,180.3Zm-66.9-9.726c-.041.2-.116.35-.073.43a.349.349,0,0,0,.316.112.312.312,0,0,0,.123-.285C811.886,170.743,811.739,170.7,811.561,170.579Zm-9.174-12.243-.255-.038-.108.566.213.049Zm-8.655,2.617-.192.126.236.384.219-.148Zm-1.778-.2.161-.049-.13-.543-.2.062Zm18.767,5.662.437.5C811.208,166.617,811.365,166.231,810.72,166.417Zm83.56,3.465.2.161.283-.4c-.051-.034-.136-.106-.148-.095C894.5,169.652,894.39,169.769,894.281,169.882ZM842.18,183.7c-.261.454-.295.673.29.75ZM790.2,178.778l-.177.144.435.574.156-.116Zm-20.365,24.07.064-.175-.526-.193-.065.172Zm79.962-42.109.192-.015-.117-.618-.19.04Zm-99.454,62.082c-.031.2-.081.3-.048.362.042.077.151.118.23.175.045-.078.145-.181.124-.23C750.6,223.033,750.493,222.967,750.339,222.821Zm58.425-62.855-.064-.268c-.156.049-.314.095-.466.155a.493.493,0,0,0,.024.164C808.427,160.007,808.6,159.985,808.764,159.966Zm68.309,1.409a1.653,1.653,0,0,0-.353-.14c-.024,0-.124.185-.1.221a1.038,1.038,0,0,0,.271.2Zm10.133,18.188c-.284-.01-.432-.058-.495-.006-.078.065-.085.214-.123.327.092.018.2.076.272.043C886.956,179.881,887.019,179.768,887.207,179.563Zm-33.638-11.614.273.014q-.013-.3-.026-.591l-.214,0Q853.584,167.662,853.568,167.948ZM806.76,181.493l.252-.095-.349-.563-.141.074Zm29.946-15.2-.239.144.287.39.155-.1Zm-21.973-.552-.265.009.061.521.167-.014Q814.715,166.005,814.733,165.747Zm-70.11,61.63.253-.134-.316-.468-.153.093ZM866.756,147.3l.078.126.392-.17-.166-.221Zm-38.52,10.921-.235-.086c-.2.163-.436.318-.021.693Zm-56.723,29.784c-.118-.032-.226-.1-.3-.072s-.094.149-.138.23l.315.162Zm103.213-5.422c.486-.449.364-.624-.141-.764Z" transform="translate(0)" fill="#f22059"/>
    <path id="Path_26" data-name="Path 26" d="M2697.267,591.982c.082.345.179.756.291,1.227a3.328,3.328,0,0,1-2.252-.327c-.771-.356-1.517-.768-2.273-1.157-.574-.3-.63-.392-.73-1.223.09-.037.209-.133.274-.105,1.013.443,2.218.378,3.1,1.192a2.626,2.626,0,0,0,.888.5C2696.725,592.148,2696.948,592.037,2697.267,591.982Z" transform="translate(-1775.593 -407.81)" fill="#f22059"/>
    <path id="Path_27" data-name="Path 27" d="M745.141,1197.515l-.541-.972a4.727,4.727,0,0,0,.835-1.094c.356-1.035,1.243-1.686,1.758-2.6.093-.164.3-.263.468-.4.559.284.712.733.4,1.189a19.9,19.9,0,0,1-2.251,3.381A7.58,7.58,0,0,1,745.141,1197.515Z" transform="translate(-4.123 -955.394)" fill="#f22059"/>
    <path id="Path_28" data-name="Path 28" d="M825.152,966.888l-.526-.345.313-.492c-.175-.173-.368-.287-.435-.452a1.788,1.788,0,0,1,.032-.645c-.991.33-.922,1.084-.946,1.869a4.5,4.5,0,0,1-.746-.458c-.1-.094-.17-.415-.118-.454.575-.432.281-1.1.474-1.648.163-.091.337-.2.523-.287a.686.686,0,0,1,.978.3A6.072,6.072,0,0,1,825.152,966.888Z" transform="translate(-75.164 -747.517)" fill="#f22059"/>
    <path id="Path_29" data-name="Path 29" d="M1821.334,693.173c-.246-.344-.334-.66-.016-.873a9.875,9.875,0,0,1,1.22-.6l.372.976Z" transform="translate(-983.23 -499.954)" fill="#f22059"/>
    <path id="Path_30" data-name="Path 30" d="M2532.67,429.834c-.5-.572-.8-1.38-1.86-1.1l.489.8-.4.2c-.21-.4-.408-.77-.607-1.149C2531.573,428.132,2532.6,428.636,2532.67,429.834Z" transform="translate(-1628.242 -260.498)" fill="#f22059"/>
    <path id="Path_31" data-name="Path 31" d="M784.36,1270.877l-.421-1.335a1.477,1.477,0,0,1,1.566.233Z" transform="translate(-39.903 -1025.393)" fill="#f22059"/>
    <path id="Path_32" data-name="Path 32" d="M2726.33,660.816c.124.392.243.769.41,1.3l-1.457-.167C2725.365,661.227,2725.775,661,2726.33,660.816Z" transform="translate(-1805.589 -471.863)" fill="#f22059"/>
    <path id="Path_33" data-name="Path 33" d="M1110.153,1520.166l.915.615-.6,1.037C1110.31,1521.259,1109.616,1520.842,1110.153,1520.166Z" transform="translate(-336.418 -1253.457)" fill="#f22059"/>
    <path id="Path_34" data-name="Path 34" d="M998.3,1463.215l1.141,1.339C998.6,1464.909,998.18,1464.39,998.3,1463.215Z" transform="translate(-234.848 -1201.659)" fill="#f22059"/>
    <path id="Path_35" data-name="Path 35" d="M1301.641,1588.178c.057-.451-.6-.841-.055-1.42l.848.517-.587.953Z" transform="translate(-510.514 -1314.024)" fill="#f22059"/>
    <path id="Path_36" data-name="Path 36" d="M1843.022,690.375c.726.112.743.585.64,1.171C1843.087,691.16,1843.087,691.16,1843.022,690.375Z" transform="translate(-1003.157 -498.748)" fill="#f22059"/>
    <path id="Path_37" data-name="Path 37" d="M1015.972,1478.26l-.878.615c-.383-.169-.234-.506-.157-.9Z" transform="translate(-249.914 -1215.083)" fill="#f22059"/>
    <path id="Path_38" data-name="Path 38" d="M1828.448,161.634l-1.051-.391,1-.423.551.432.008-.02-.552.391Z" transform="translate(-988.946 -17.108)" fill="#f22059"/>
    <path id="Path_39" data-name="Path 39" d="M1733.764,1185.912c-.1-.33-.208-.66-.324-1.031C1734.106,1185.122,1734.106,1185.122,1733.764,1185.912Z" transform="translate(-903.491 -948.509)" fill="#f22059"/>
    <path id="Path_40" data-name="Path 40" d="M970.135,1186.6l-.328-1.689C970.435,1185.706,970.448,1185.769,970.135,1186.6Z" transform="translate(-208.953 -948.539)" fill="#f22059"/>
    <path id="Path_41" data-name="Path 41" d="M1178.166,377.58l-1,.789-.408-.464,1.339-.422Z" transform="translate(-397.177 -214.167)" fill="#f22059"/>
    <path id="Path_42" data-name="Path 42" d="M801.042,1024.572l.645.487-.4.747C800.928,1025.34,800.816,1025.015,801.042,1024.572Z" transform="translate(-55.352 -802.706)" fill="#f22059"/>
    <path id="Path_43" data-name="Path 43" d="M2337.975,1342.648c.027.651.027.651-.547,1.121-.057-.25-.1-.458-.152-.666l-.019.028.756-.457Z" transform="translate(-1452.674 -1092.001)" fill="#f22059"/>
    <path id="Path_44" data-name="Path 44" d="M1692.108,778.77c.094-.826.59-.568,1.062-.7A1.168,1.168,0,0,1,1692.108,778.77Z" transform="translate(-865.899 -578.508)" fill="#f22059"/>
    <path id="Path_45" data-name="Path 45" d="M2535.341,445.677l.815.055-.156.685Z" transform="translate(-1632.834 -276.19)" fill="#f22059"/>
    <path id="Path_46" data-name="Path 46" d="M982.4,1446.123c-.119.158-.178.312-.274.34s-.206-.1-.312-.152l.213-.4Z" transform="translate(-219.874 -1185.924)" fill="#f22059"/>
    <path id="Path_47" data-name="Path 47" d="M1157.558,1550.311l-.465-.614C1157.535,1549.7,1157.535,1549.7,1157.558,1550.311Z" transform="translate(-379.293 -1280.316)" fill="#f22059"/>
    <path id="Path_48" data-name="Path 48" d="M2558.206,454.11c-.178-.231-.3-.323-.32-.434a.364.364,0,0,1,.127-.312.317.317,0,0,1,.3.1C2558.356,453.546,2558.285,453.687,2558.206,454.11Z" transform="translate(-1653.336 -283.172)" fill="#f22059"/>
    <path id="Path_49" data-name="Path 49" d="M2678.209,916.145a2.927,2.927,0,0,1,.337.466c.021.045-.129.223-.141.218a.986.986,0,0,1-.373-.251C2678,916.528,2678.113,916.368,2678.209,916.145Z" transform="translate(-1762.608 -704.089)" fill="#f22059"/>
    <path id="Path_50" data-name="Path 50" d="M2244.418,1422.767c.026.152.053.3.119.687l-.7-.508-.011.04a.419.419,0,0,1,.624-.194Z" transform="translate(-1367.697 -1164.829)" fill="#f22059"/>
    <path id="Path_51" data-name="Path 51" d="M2051.7,154.308l-.867-.138c.027-.086.056-.173.084-.259l.764.428Z" transform="translate(-1192.164 -10.823)" fill="#f22059"/>
    <path id="Path_52" data-name="Path 52" d="M1530.673,351s0,.03,0,.031l.4-.275q.033.166.067.332Z" transform="translate(-719.07 -189.857)" fill="#f22059"/>
    <path id="Path_53" data-name="Path 53" d="M1633.072,761.578q.036-.287.072-.573l.227.019-.059.577Z" transform="translate(-812.204 -562.986)" fill="#f22059"/>
    <path id="Path_54" data-name="Path 54" d="M833.873,1006.342c-.234.1-.363.206-.444.177s-.145-.185-.18-.3a.339.339,0,0,1,.224-.132C833.578,1006.11,833.668,1006.207,833.873,1006.342Z" transform="translate(-84.752 -785.896)" fill="#f22059"/>
    <path id="Path_55" data-name="Path 55" d="M1716.253,1155.8c0,.162,0,.326,0,.488a.886.886,0,0,1-.185-.024c-.01-.155,0-.311,0-.466Z" transform="translate(-887.683 -922.06)" fill="#f22059"/>
    <path id="Path_56" data-name="Path 56" d="M2060.207,156.351l.723-.228c-.274.536-.495.265-.7.193Z" transform="translate(-1200.691 -12.836)" fill="#f22059"/>
    <path id="Path_57" data-name="Path 57" d="M2676.4,933.9c-.021.09-.043.184-.066.277l-.229-.078.106-.275Z" transform="translate(-1760.862 -720.172)" fill="#f22059"/>
    <path id="Path_58" data-name="Path 58" d="M1818.587,282.931a3.11,3.11,0,0,1,.427.977.936.936,0,0,1-.436.725,1.142,1.142,0,0,1-.86-.061c-.112-.049-.126-.413-.115-.63.019-.367.094-.732.144-1.08l.873.085Z" transform="translate(-980.036 -128.106)" fill="#f22059"/>
  </g>
</svg>
